<?xml version="1.0" encoding="utf-8"?>
<!-- Generator: Adobe Illustrator 18.0.0, SVG Export Plug-In . SVG Version: 6.00 Build 0)  -->
<!DOCTYPE svg PUBLIC "-//W3C//DTD SVG 1.1//EN" "http://www.w3.org/Graphics/SVG/1.1/DTD/svg11.dtd">
<svg version="1.1" id="Capa_1" xmlns="http://www.w3.org/2000/svg" xmlns:xlink="http://www.w3.org/1999/xlink" x="0px" y="0px"
	 viewBox="0 0 40 16" enable-background="new 0 0 40 16" xml:space="preserve">
<path d="M27.7,11.4h-0.5V8.5c0-0.3-0.1-0.7-0.3-1l-1.3-1.9c-0.3-0.5-0.8-0.7-1.4-0.7h-2c-0.2,0-0.4,0.2-0.4,0.4v6.1h-3.3
	c0.3,0.3,0.5,0.6,0.6,1.1h3.5c0.1-0.8,0.9-1.5,1.7-1.5c0.9,0,1.6,0.7,1.7,1.5h1.7c0.1,0,0.2-0.1,0.2-0.2v-0.6
	C27.9,11.5,27.8,11.4,27.7,11.4 M25.6,8h-2.7c-0.1,0-0.2-0.1-0.2-0.2V6.3c0-0.1,0.1-0.2,0.2-0.2h1.6c0.1,0,0.1,0,0.2,0.1l1,1.5
	C25.9,7.8,25.8,8,25.6,8 M24.2,11.4c-0.7,0-1.3,0.6-1.3,1.3c0,0.7,0.6,1.3,1.3,1.3c0.7,0,1.3-0.6,1.3-1.3C25.6,12,25,11.4,24.2,11.4
	 M24.2,13.4c-0.4,0-0.7-0.3-0.7-0.7c0-0.4,0.3-0.7,0.7-0.7c0.4,0,0.7,0.3,0.7,0.7C24.9,13.1,24.6,13.4,24.2,13.4 M13.2,11.4
	c-0.1,0-0.2,0.1-0.2,0.2v0.6c0,0.1,0.1,0.2,0.2,0.2h2.4c0.1-0.4,0.3-0.8,0.6-1.1H13.2z M17.3,11.4c-0.7,0-1.3,0.6-1.3,1.3
	c0,0.7,0.6,1.3,1.3,1.3c0.7,0,1.3-0.6,1.3-1.3C18.6,12,18,11.4,17.3,11.4 M17.3,13.4c-0.4,0-0.7-0.3-0.7-0.7c0-0.4,0.3-0.7,0.7-0.7
	c0.4,0,0.7,0.3,0.7,0.7C18,13.1,17.7,13.4,17.3,13.4 M20.5,3.6H18c0.1,0.4,0.2,0.7,0.2,1.1c0,2-1.6,3.6-3.6,3.6
	c-0.4,0-0.7-0.1-1.1-0.2v2.4c0,0.1,0.1,0.2,0.2,0.2h7.2c0.1,0,0.2-0.1,0.2-0.2V4.2C21.1,3.9,20.9,3.6,20.5,3.6 M14.6,1.5
	c-1.8,0-3.2,1.4-3.2,3.2c0,1.8,1.4,3.2,3.2,3.2c1.8,0,3.2-1.4,3.2-3.2C17.8,3,16.4,1.5,14.6,1.5 M14.6,7.2c-1.4,0-2.5-1.1-2.5-2.5
	c0-1.4,1.1-2.5,2.5-2.5c1.4,0,2.5,1.1,2.5,2.5C17.1,6.1,15.9,7.2,14.6,7.2 M15.5,5.3L15.5,5.3L14.4,5c-0.1,0-0.2-0.2-0.2-0.3V3.1
	c0-0.2,0.1-0.3,0.3-0.3c0.2,0,0.3,0.1,0.3,0.3v1.4l0.8,0.2c0.2,0,0.3,0.2,0.2,0.4C15.8,5.2,15.7,5.3,15.5,5.3"/>
<g>
</g>
<g>
</g>
<g>
</g>
<g>
</g>
<g>
</g>
<g>
</g>
</svg>
