<?xml version="1.0" encoding="utf-8"?>
<!-- Generator: Adobe Illustrator 18.0.0, SVG Export Plug-In . SVG Version: 6.00 Build 0)  -->
<!DOCTYPE svg PUBLIC "-//W3C//DTD SVG 1.1//EN" "http://www.w3.org/Graphics/SVG/1.1/DTD/svg11.dtd">
<svg version="1.1" id="Capa_1" xmlns="http://www.w3.org/2000/svg" xmlns:xlink="http://www.w3.org/1999/xlink" x="0px" y="0px"
	 viewBox="0 0 36 27" enable-background="new 0 0 36 27" xml:space="preserve">
<path fill="#FFFFFF" d="M31.5,0h-27C2,0,0,2,0,4.5v18C0,25,2,27,4.5,27h27c2.5,0,4.5-2,4.5-4.5v-18C36,2,34,0,31.5,0 M24.1,12
	l9.5-8.2c0.1,0.2,0.1,0.4,0.1,0.7v18c0,0.2-0.1,0.3-0.1,0.4L24.1,12z M31.5,2.2c0.1,0,0.3,0.1,0.4,0.1L18,14.3L4.1,2.3
	c0.1,0,0.3-0.1,0.4-0.1H31.5z M2.3,22.9c0-0.1-0.1-0.3-0.1-0.4v-18c0-0.2,0.1-0.4,0.1-0.7l9.5,8.2L2.3,22.9z M4.5,24.7
	c-0.2,0-0.4-0.1-0.6-0.1l9.8-11.1l3.7,3.1c0.2,0.2,0.5,0.3,0.7,0.3c0.3,0,0.5-0.1,0.7-0.3l3.7-3.1l9.8,11.1
	c-0.2,0.1-0.4,0.1-0.6,0.1H4.5z"/>
</svg>
