<?xml version="1.0" encoding="utf-8"?>
<!-- Generator: Adobe Illustrator 18.0.0, SVG Export Plug-In . SVG Version: 6.00 Build 0)  -->
<!DOCTYPE svg PUBLIC "-//W3C//DTD SVG 1.1//EN" "http://www.w3.org/Graphics/SVG/1.1/DTD/svg11.dtd">
<svg version="1.1" id="Capa_1" xmlns="http://www.w3.org/2000/svg" xmlns:xlink="http://www.w3.org/1999/xlink" x="0px" y="0px"
	 viewBox="0 0 19.1 18.2" enable-background="new 0 0 19.1 18.2" xml:space="preserve">
<g>
	<defs>
		<rect id="SVGID_11_" x="-424.6" y="-802" width="1726.4" height="1980.3"/>
	</defs>
	<clipPath id="SVGID_2_">
		<use xlink:href="#SVGID_11_"  overflow="visible"/>
	</clipPath>
</g>
<g>
	<defs>
		<rect id="SVGID_17_" x="-424.6" y="-802" width="1726.4" height="1980.3"/>
	</defs>
	<clipPath id="SVGID_4_">
		<use xlink:href="#SVGID_17_"  overflow="visible"/>
	</clipPath>
</g>
<g>
	<defs>
		<rect id="SVGID_19_" x="-424.6" y="-802" width="1726.4" height="1980.3"/>
	</defs>
	<clipPath id="SVGID_6_">
		<use xlink:href="#SVGID_19_"  overflow="visible"/>
	</clipPath>
</g>
<g>
	<defs>
		<rect id="SVGID_25_" x="-424.6" y="-802" width="1726.4" height="1980.3"/>
	</defs>
	<clipPath id="SVGID_8_">
		<use xlink:href="#SVGID_25_"  overflow="visible"/>
	</clipPath>
</g>
<g>
	<defs>
		<rect id="SVGID_29_" x="-424.6" y="-802" width="1726.4" height="1980.3"/>
	</defs>
	<clipPath id="SVGID_10_">
		<use xlink:href="#SVGID_29_"  overflow="visible"/>
	</clipPath>
</g>
<g>
	<defs>
		<rect id="SVGID_31_" x="-424.6" y="-802" width="1726.4" height="1980.3"/>
	</defs>
	<clipPath id="SVGID_12_">
		<use xlink:href="#SVGID_31_"  overflow="visible"/>
	</clipPath>
	<polygon clip-path="url(#SVGID_12_)" fill="#030405" points="9.6,0 11.8,6.9 19.1,6.9 13.2,11.2 15.5,18.2 9.6,13.9 3.6,18.2 
		5.9,11.2 0,6.9 7.3,6.9 	"/>
	<polygon clip-path="url(#SVGID_12_)" fill="none" stroke="#FFFFFF" stroke-width="0.25" stroke-miterlimit="10" points="9.6,0 
		11.8,6.9 19.1,6.9 13.2,11.2 15.5,18.2 9.6,13.9 3.6,18.2 5.9,11.2 0,6.9 7.3,6.9 	"/>
</g>
<g>
	<defs>
		<rect id="SVGID_33_" x="-424.6" y="-802" width="1726.4" height="1980.3"/>
	</defs>
	<clipPath id="SVGID_14_">
		<use xlink:href="#SVGID_33_"  overflow="visible"/>
	</clipPath>
</g>
</svg>
