<?xml version="1.0" encoding="utf-8"?>
<!-- Generator: Adobe Illustrator 18.0.0, SVG Export Plug-In . SVG Version: 6.00 Build 0)  -->
<!DOCTYPE svg PUBLIC "-//W3C//DTD SVG 1.1//EN" "http://www.w3.org/Graphics/SVG/1.1/DTD/svg11.dtd">
<svg version="1.1" id="Capa_1" xmlns="http://www.w3.org/2000/svg" xmlns:xlink="http://www.w3.org/1999/xlink" x="0px" y="0px"
	 viewBox="0 0 25.3 19.3" enable-background="new 0 0 25.3 19.3" xml:space="preserve">
<path fill="#FFFFFF" d="M1.6,2.6h3.7L9,14.4C9.1,14.8,9.5,15,9.9,15h11.6c0.5,0,1-0.4,1-1s-0.4-1-1-1H10.6l-0.7-2.4h11.9
	c0.8,0,1.6-0.6,1.8-1.4l1.1-5c0.1-0.5,0-0.9-0.3-1.3c-0.3-0.4-0.7-0.6-1.2-0.6H7.3L6.9,1.3C6.8,0.9,6.4,0.6,6,0.6H1.6
	c-0.5,0-1,0.4-1,1S1.1,2.6,1.6,2.6 M21.7,8.9l-12.4,0l0,0l0,0L8.9,7.6H22L21.7,8.9z M7.9,4.4h14.8l-0.3,1.3H8.3h0L7.9,4.4L7.9,4.4z"
	/>
<path fill="#1B1D1C" d="M1.6,2.6v0.1h3.6l3.7,11.7c0.1,0.4,0.6,0.8,1,0.8h11.6c0.6,0,1.1-0.5,1.1-1.1c0-0.6-0.5-1.1-1.1-1.1H10.7
	L10,10.9h11.7c0.9,0,1.7-0.7,1.9-1.5l1.1-5c0-0.1,0-0.2,0-0.4c0-0.4-0.1-0.7-0.4-1c-0.3-0.4-0.8-0.6-1.3-0.6H7.4L7,1.3
	C6.9,0.8,6.5,0.5,6,0.5H1.6C1,0.5,0.6,1,0.6,1.6c0,0.6,0.5,1.1,1.1,1.1V2.6V2.4c-0.5,0-0.8-0.4-0.8-0.8c0-0.5,0.4-0.8,0.8-0.8H6
	c0.4,0,0.7,0.2,0.8,0.6l0.4,1.3h16c0.4,0,0.8,0.2,1.1,0.5c0.2,0.2,0.3,0.5,0.3,0.9c0,0.1,0,0.2,0,0.3l-1.1,5
	c-0.2,0.8-0.9,1.3-1.7,1.3H9.7l0.8,2.6h11c0.5,0,0.8,0.4,0.8,0.8c0,0.5-0.4,0.8-0.8,0.8H9.9c-0.4,0-0.7-0.2-0.8-0.6L5.4,2.4H1.6V2.6
	z M21.7,8.9l0-0.1l-12.3,0l0,0l-0.1,0l-0.1,0l0.1,0.1l0.1,0L9,7.7h12.8l-0.2,1.1L21.7,8.9l0-0.1L21.7,8.9l0.1,0l0.3-1.4H8.7L9.2,9
	L9.4,9L9.3,8.9L9.2,9l0,0l0,0l12.5,0l0-0.1L21.7,8.9z M7.9,4.4v0.1h14.7l-0.2,1h-14h0v0.1l0.1,0L7.9,4.4L7.9,4.4l0,0.1h0V4.4V4.3h0
	H7.7l0.5,1.5h0.1h14.2l0.3-1.5h-15V4.4z"/>
<path fill="#FFFFFF" d="M11.2,15.9c0.7,0,1.4,0.6,1.4,1.4c0,0.7-0.6,1.4-1.4,1.4c-0.7,0-1.4-0.6-1.4-1.4
	C9.8,16.5,10.4,15.9,11.2,15.9"/>
<path fill="#1B1D1C" d="M11.2,15.9V16c0.7,0,1.2,0.5,1.2,1.2c0,0.7-0.5,1.2-1.2,1.2c-0.7,0-1.2-0.5-1.2-1.2c0-0.7,0.5-1.2,1.2-1.2
	V15.9v-0.1c-0.8,0-1.5,0.7-1.5,1.5c0,0.8,0.7,1.5,1.5,1.5c0.8,0,1.5-0.7,1.5-1.5c0-0.8-0.7-1.5-1.5-1.5V15.9z"/>
<path fill="#FFFFFF" d="M19.5,15.9c0.7,0,1.4,0.6,1.4,1.4c0,0.7-0.6,1.4-1.4,1.4c-0.7,0-1.4-0.6-1.4-1.4
	C18.2,16.5,18.8,15.9,19.5,15.9"/>
<path fill="#1B1D1C" d="M19.5,15.9V16c0.7,0,1.2,0.5,1.2,1.2c0,0.7-0.5,1.2-1.2,1.2c-0.7,0-1.2-0.5-1.2-1.2c0-0.7,0.5-1.2,1.2-1.2
	V15.9v-0.1c-0.8,0-1.5,0.7-1.5,1.5c0,0.8,0.7,1.5,1.5,1.5c0.8,0,1.5-0.7,1.5-1.5c0-0.8-0.7-1.5-1.5-1.5V15.9z"/>
</svg>
