<?xml version="1.0" encoding="utf-8"?>
<!-- Generator: Adobe Illustrator 18.0.0, SVG Export Plug-In . SVG Version: 6.00 Build 0)  -->
<!DOCTYPE svg PUBLIC "-//W3C//DTD SVG 1.1//EN" "http://www.w3.org/Graphics/SVG/1.1/DTD/svg11.dtd">
<svg version="1.1" id="Capa_1" xmlns="http://www.w3.org/2000/svg" xmlns:xlink="http://www.w3.org/1999/xlink" x="0px" y="0px"
	 viewBox="0 0 40 16" enable-background="new 0 0 40 16" xml:space="preserve">
<path d="M23.5,1h-0.5h-1.6h-7v4v4.7v4h0.9v1.4l0.9-0.6l0.9,0.6v-1.4h4.2h1.6h0.5c0.5,0,0.9-0.4,0.9-0.9v-3V5v-3
	C24.5,1.4,24,1,23.5,1 M14.9,1.5h6.5V5h-6.5V1.5z M21.4,9.1h-6.5V5.4h6.5V9.1z M16.8,14.1l-0.5-0.3l-0.5,0.3v-0.5h0.9V14.1z
	 M17.2,13.1h-1.9h-0.5V9.6h6.5v3.5H17.2z M21.9,13.1V9.6V5V1.5h0.7V5v4.7v3.5H21.9z M23.1,5.4H24v3.7h-0.9V5.4z M24,12.6
	c0,0.3-0.2,0.5-0.5,0.5h-0.5V9.6H24V12.6z M23.1,5V1.5h0.5c0.3,0,0.5,0.2,0.5,0.5v3H23.1z"/>
<g>
</g>
<g>
</g>
<g>
</g>
<g>
</g>
<g>
</g>
<g>
</g>
</svg>
