<?xml version="1.0" encoding="utf-8"?>
<!-- Generator: Adobe Illustrator 18.0.0, SVG Export Plug-In . SVG Version: 6.00 Build 0)  -->
<!DOCTYPE svg PUBLIC "-//W3C//DTD SVG 1.1//EN" "http://www.w3.org/Graphics/SVG/1.1/DTD/svg11.dtd">
<svg version="1.1" id="Capa_1" xmlns="http://www.w3.org/2000/svg" xmlns:xlink="http://www.w3.org/1999/xlink" x="0px" y="0px"
	 viewBox="0 0 40.6 41.9" enable-background="new 0 0 40.6 41.9" xml:space="preserve">
<path fill="#FFFFFF" d="M33.1,30.1H7.5c-2.8,0-5.2-2.3-5.2-5.2V8.2C2.3,5.3,4.6,3,7.5,3h25.7c2.8,0,5.2,2.3,5.2,5.2v16.7
	C38.3,27.7,36,30.1,33.1,30.1"/>
<polygon fill="#FFFFFF" points="18.2,28.3 29.6,39.3 29.6,27.8 "/>
<g>
	<defs>
		<path id="SVGID_1_" d="M8,16.5c0,1.6,1.3,2.9,2.9,2.9c1.6,0,2.9-1.3,2.9-2.9c0-1.6-1.3-2.9-2.9-2.9C9.3,13.6,8,14.9,8,16.5"/>
	</defs>
	<clipPath id="SVGID_2_">
		<use xlink:href="#SVGID_1_"  overflow="visible"/>
	</clipPath>
	<rect x="8" y="13.6" clip-path="url(#SVGID_2_)" fill="#1B1D1C" width="5.8" height="5.8"/>
</g>
<path fill="#1B1D1C" d="M20.3,19.4c-1.6,0-2.9-1.3-2.9-2.9c0-1.6,1.3-2.9,2.9-2.9c1.6,0,2.9,1.3,2.9,2.9
	C23.2,18.1,21.9,19.4,20.3,19.4"/>
<path fill="#1B1D1C" d="M29.7,19.4c-1.6,0-2.9-1.3-2.9-2.9c0-1.6,1.3-2.9,2.9-2.9c1.6,0,2.9,1.3,2.9,2.9
	C32.6,18.1,31.3,19.4,29.7,19.4"/>
</svg>
