<?xml version="1.0" encoding="utf-8"?>
<!-- Generator: Adobe Illustrator 18.0.0, SVG Export Plug-In . SVG Version: 6.00 Build 0)  -->
<!DOCTYPE svg PUBLIC "-//W3C//DTD SVG 1.1//EN" "http://www.w3.org/Graphics/SVG/1.1/DTD/svg11.dtd">
<svg version="1.1" id="Capa_1" xmlns="http://www.w3.org/2000/svg" xmlns:xlink="http://www.w3.org/1999/xlink" x="0px" y="0px"
	 viewBox="0 0 40 16" enable-background="new 0 0 40 16" xml:space="preserve">
<path d="M21.6,8.6c0.1-0.1,0.1-0.2,0-0.3l0,0c0.1-0.1,0.2-0.4,0.2-0.8c0-0.2,0.1-0.3,0.1-0.3c0.1,0,0.1-0.1,0.2-0.2
	c0-0.1,0.3-0.7,0.3-1.1l0-0.1c0-0.1-0.1-0.3-0.2-0.4V4.3c0-0.8-0.2-1.1-0.5-1.3c0-0.4-0.5-1.2-2-1.2c-1.6,0-2.5,1.5-2.5,2.5v1.3
	C17,5.7,16.9,5.9,16.9,6l0,0.1c0,0.4,0.2,1,0.3,1.1c0,0.1,0.1,0.1,0.2,0.1c0,0,0.1,0.1,0.1,0.3c0,0.5,0.4,1,0.7,1.4
	c-0.1,0.3-0.3,1.2-0.8,1.4L15.1,11c-0.6,0.2-1,0.7-1.1,1.2l-0.3,1.2c0,0.1,0,0.2,0,0.2c0,0.1,0.1,0.1,0.2,0.1h0l6.5,0
	c0.1,0,0.2-0.1,0.2-0.3v-3c0-0.3,0.2-0.5,0.4-0.7c0.1,0,0.1-0.1,0.1-0.2C21.2,9.3,21.4,8.9,21.6,8.6"/>
<path d="M25.4,10.3h-0.3V10c0-1-0.8-1.8-1.8-1.8c-1,0-1.8,0.8-1.8,1.8v0.3h-0.3c-0.1,0-0.3,0.1-0.3,0.3v3c0,0.1,0.1,0.3,0.3,0.3h4
	c0.1,0,0.3-0.1,0.3-0.3v-3C25.6,10.4,25.5,10.3,25.4,10.3 M23.6,12.2v0.3c0,0.1-0.1,0.3-0.3,0.3c-0.1,0-0.3-0.1-0.3-0.3v-0.3
	c-0.1-0.1-0.3-0.2-0.3-0.4c0-0.3,0.2-0.5,0.5-0.5c0.3,0,0.5,0.2,0.5,0.5C23.9,12,23.8,12.1,23.6,12.2 M24.6,10.3h-2.5V10
	c0-0.7,0.6-1.3,1.3-1.3c0.7,0,1.3,0.6,1.3,1.3V10.3z"/>
<g>
</g>
<g>
</g>
<g>
</g>
<g>
</g>
<g>
</g>
<g>
</g>
</svg>
