<?xml version="1.0" encoding="utf-8"?>
<!-- Generator: Adobe Illustrator 18.0.0, SVG Export Plug-In . SVG Version: 6.00 Build 0)  -->
<!DOCTYPE svg PUBLIC "-//W3C//DTD SVG 1.1//EN" "http://www.w3.org/Graphics/SVG/1.1/DTD/svg11.dtd">
<svg version="1.1" id="Capa_1" xmlns="http://www.w3.org/2000/svg" xmlns:xlink="http://www.w3.org/1999/xlink" x="0px" y="0px"
	 viewBox="0 0 40 16" enable-background="new 0 0 40 16" xml:space="preserve">
<path d="M23.2,2.1h-1.7c-0.1-0.3-0.3-0.5-0.6-0.5h-0.7c-0.2-0.3-0.5-0.5-0.9-0.5c-0.4,0-0.7,0.2-0.9,0.5h-0.7
	c-0.3,0-0.5,0.2-0.6,0.5h-1.7c-0.5,0-0.9,0.4-0.9,0.9v10.6c0,0.5,0.4,0.9,0.9,0.9h7.8c0.5,0,0.9-0.4,0.9-0.9V3
	C24.1,2.5,23.7,2.1,23.2,2.1 M17.1,3.5c0.1,0.3,0.3,0.5,0.6,0.5h3.2c0.3,0,0.5-0.2,0.6-0.5h1.2v9.7h-6.9V3.5H17.1z M17.7,2.1h0.8
	c0.1,0,0.1,0,0.2-0.1c0.1-0.2,0.4-0.4,0.6-0.4c0.3,0,0.5,0.1,0.6,0.4c0,0.1,0.1,0.1,0.2,0.1h0.8c0.1,0,0.2,0.1,0.2,0.2v0.9v0v0
	c0,0.1-0.1,0.2-0.2,0.2h-3.2c-0.1,0-0.2-0.1-0.2-0.2v0v0V2.3C17.5,2.2,17.6,2.1,17.7,2.1 M23.7,13.6c0,0.3-0.2,0.5-0.5,0.5h-7.8
	c-0.3,0-0.5-0.2-0.5-0.5V3c0-0.3,0.2-0.5,0.5-0.5H17v0.5h-1.4c-0.1,0-0.2,0.1-0.2,0.2v10.1c0,0.1,0.1,0.2,0.2,0.2H23
	c0.1,0,0.2-0.1,0.2-0.2V3.3c0-0.1-0.1-0.2-0.2-0.2h-1.4V2.6h1.6c0.3,0,0.5,0.2,0.5,0.5V13.6z"/>
<path d="M19.3,3c0.1,0,0.2-0.1,0.2-0.2V2.3c0-0.1-0.1-0.2-0.2-0.2c-0.1,0-0.2,0.1-0.2,0.2v0.5C19.1,2.9,19.2,3,19.3,3"/>
<path d="M19.5,6h1.4c0.1,0,0.2-0.1,0.2-0.2S21,5.6,20.9,5.6h-1.4c-0.1,0-0.2,0.1-0.2,0.2S19.4,6,19.5,6"/>
<path d="M19.5,6.9h2.3C22,6.9,22,6.8,22,6.7S22,6.5,21.8,6.5h-2.3c-0.1,0-0.2,0.1-0.2,0.2S19.4,6.9,19.5,6.9"/>
<path d="M17.3,6.9c0,0,0.1,0.1,0.2,0.1c0.1,0,0.1,0,0.2-0.1l1.1-1.1c0.1-0.1,0.1-0.2,0-0.3c-0.1-0.1-0.2-0.1-0.3,0l-1,1l-0.5-0.5
	c-0.1-0.1-0.2-0.1-0.3,0c-0.1,0.1-0.1,0.2,0,0.3L17.3,6.9z"/>
<path d="M19.5,8.3h1.4c0.1,0,0.2-0.1,0.2-0.2c0-0.1-0.1-0.2-0.2-0.2h-1.4c-0.1,0-0.2,0.1-0.2,0.2C19.3,8.2,19.4,8.3,19.5,8.3"/>
<path d="M19.5,9.2h2.3C22,9.2,22,9.1,22,9S22,8.8,21.8,8.8h-2.3c-0.1,0-0.2,0.1-0.2,0.2S19.4,9.2,19.5,9.2"/>
<path d="M17.3,9.2c0,0,0.1,0.1,0.2,0.1c0.1,0,0.1,0,0.2-0.1L18.8,8c0.1-0.1,0.1-0.2,0-0.3c-0.1-0.1-0.2-0.1-0.3,0l-1,1l-0.5-0.5
	c-0.1-0.1-0.2-0.1-0.3,0c-0.1,0.1-0.1,0.2,0,0.3L17.3,9.2z"/>
<path d="M19.5,10.6h1.4c0.1,0,0.2-0.1,0.2-0.2c0-0.1-0.1-0.2-0.2-0.2h-1.4c-0.1,0-0.2,0.1-0.2,0.2C19.3,10.5,19.4,10.6,19.5,10.6"/>
<path d="M19.5,11.5h2.3c0.1,0,0.2-0.1,0.2-0.2c0-0.1-0.1-0.2-0.2-0.2h-2.3c-0.1,0-0.2,0.1-0.2,0.2C19.3,11.4,19.4,11.5,19.5,11.5"/>
<path d="M17.3,11.5c0,0,0.1,0.1,0.2,0.1c0.1,0,0.1,0,0.2-0.1l1.1-1.1c0.1-0.1,0.1-0.2,0-0.3c-0.1-0.1-0.2-0.1-0.3,0l-1,1l-0.5-0.5
	c-0.1-0.1-0.2-0.1-0.3,0c-0.1,0.1-0.1,0.2,0,0.3L17.3,11.5z"/>
<g>
</g>
<g>
</g>
<g>
</g>
<g>
</g>
<g>
</g>
<g>
</g>
</svg>
