<?xml version="1.0" encoding="utf-8"?>
<!-- Generator: Adobe Illustrator 18.0.0, SVG Export Plug-In . SVG Version: 6.00 Build 0)  -->
<!DOCTYPE svg PUBLIC "-//W3C//DTD SVG 1.1//EN" "http://www.w3.org/Graphics/SVG/1.1/DTD/svg11.dtd">
<svg version="1.1" id="Capa_1" xmlns="http://www.w3.org/2000/svg" xmlns:xlink="http://www.w3.org/1999/xlink" x="0px" y="0px"
	 viewBox="0 0 21.7 21.7" enable-background="new 0 0 21.7 21.7" xml:space="preserve">
<path fill="#FFFFFF" d="M21.2,10.9c0,5.7-4.6,10.4-10.4,10.4c-5.7,0-10.4-4.6-10.4-10.4c0-5.7,4.6-10.4,10.4-10.4
	C16.6,0.5,21.2,5.1,21.2,10.9"/>
<path fill="#1B1D1C" d="M21.2,10.9h-0.5c0,2.7-1.1,5.2-2.9,7c-1.8,1.8-4.3,2.9-7,2.9c-2.7,0-5.2-1.1-7-2.9c-1.8-1.8-2.9-4.3-2.9-7
	c0-2.7,1.1-5.2,2.9-7C5.7,2.1,8.1,1,10.9,1c2.7,0,5.2,1.1,7,2.9c1.8,1.8,2.9,4.3,2.9,7H21.2h0.5c0-6-4.9-10.9-10.9-10.9
	C4.9,0,0,4.9,0,10.9c0,6,4.9,10.9,10.9,10.9c6,0,10.9-4.9,10.9-10.9H21.2z"/>
<path fill="#1B1D1C" d="M9.6,4.6C9.6,4.2,9.7,4,10,3.8c0.2-0.2,0.5-0.3,0.9-0.3s0.7,0.1,0.9,0.3C12,4,12.1,4.2,12.1,4.6
	c0,0.3-0.1,0.6-0.3,0.8c-0.2,0.2-0.5,0.3-0.9,0.3S10.2,5.5,10,5.3C9.7,5.1,9.6,4.9,9.6,4.6 M11.9,17.1h-2V7.4h2V17.1z"/>
</svg>
