<?xml version="1.0" encoding="utf-8"?>
<!-- Generator: Adobe Illustrator 18.0.0, SVG Export Plug-In . SVG Version: 6.00 Build 0)  -->
<!DOCTYPE svg PUBLIC "-//W3C//DTD SVG 1.1//EN" "http://www.w3.org/Graphics/SVG/1.1/DTD/svg11.dtd">
<svg version="1.1" id="Capa_1" xmlns="http://www.w3.org/2000/svg" xmlns:xlink="http://www.w3.org/1999/xlink" x="0px" y="0px"
	 viewBox="0 0 40 16" enable-background="new 0 0 40 16" xml:space="preserve">
<path d="M18.8,8.2h-1.5L18,6.8c0.2-0.3,0.1-0.7-0.2-0.9c-0.3-0.2-0.7-0.1-0.9,0.2l-0.8,1.3l-0.8-1.3c-0.2-0.3-0.6-0.4-0.9-0.2
	c-0.3,0.2-0.4,0.6-0.2,0.9l0.8,1.3h-1.5c-0.4,0-0.7,0.3-0.7,0.7c0,0.4,0.3,0.7,0.7,0.7h1.5l-0.8,1.3c-0.2,0.3-0.1,0.7,0.2,0.9
	c0.1,0.1,0.2,0.1,0.3,0.1c0.2,0,0.5-0.1,0.6-0.3l0.8-1.3l0.8,1.3c0.1,0.2,0.4,0.3,0.6,0.3c0.1,0,0.2,0,0.3-0.1
	c0.3-0.2,0.4-0.6,0.2-0.9l-0.8-1.3h1.5c0.4,0,0.7-0.3,0.7-0.7C19.5,8.5,19.2,8.2,18.8,8.2"/>
<path d="M10.7,8.2H9.2l0.8-1.3c0.2-0.3,0.1-0.7-0.2-0.9C9.4,5.7,8.9,5.8,8.8,6.2L8,7.5L7.2,6.2C7,5.8,6.6,5.7,6.3,5.9
	C6,6.1,5.9,6.5,6.1,6.8l0.8,1.3H5.3c-0.4,0-0.7,0.3-0.7,0.7c0,0.4,0.3,0.7,0.7,0.7h1.5l-0.8,1.3c-0.2,0.3-0.1,0.7,0.2,0.9
	c0.1,0.1,0.2,0.1,0.3,0.1c0.2,0,0.5-0.1,0.6-0.3L8,10.2l0.8,1.3c0.1,0.2,0.4,0.3,0.6,0.3c0.1,0,0.2,0,0.3-0.1
	c0.3-0.2,0.4-0.6,0.2-0.9L9.2,9.5h1.5c0.4,0,0.7-0.3,0.7-0.7C11.4,8.5,11.1,8.2,10.7,8.2"/>
<path d="M26.9,8.2h-1.5l0.8-1.3c0.2-0.3,0.1-0.7-0.2-0.9c-0.3-0.2-0.7-0.1-0.9,0.2l-0.8,1.3l-0.8-1.3c-0.2-0.3-0.6-0.4-0.9-0.2
	c-0.3,0.2-0.4,0.6-0.2,0.9L23,8.2h-1.5c-0.4,0-0.7,0.3-0.7,0.7c0,0.4,0.3,0.7,0.7,0.7H23l-0.8,1.3c-0.2,0.3-0.1,0.7,0.2,0.9
	c0.1,0.1,0.2,0.1,0.3,0.1c0.2,0,0.5-0.1,0.6-0.3l0.8-1.3l0.8,1.3c0.1,0.2,0.4,0.3,0.6,0.3c0.1,0,0.2,0,0.3-0.1
	c0.3-0.2,0.4-0.6,0.2-0.9l-0.8-1.3h1.5c0.4,0,0.7-0.3,0.7-0.7C27.6,8.5,27.3,8.2,26.9,8.2"/>
<path d="M35,8.2h-1.5l0.8-1.3c0.2-0.3,0.1-0.7-0.2-0.9c-0.3-0.2-0.7-0.1-0.9,0.2l-0.8,1.3l-0.8-1.3c-0.2-0.3-0.6-0.4-0.9-0.2
	c-0.3,0.2-0.4,0.6-0.2,0.9l0.8,1.3h-1.5c-0.4,0-0.7,0.3-0.7,0.7c0,0.4,0.3,0.7,0.7,0.7h1.5l-0.8,1.3c-0.2,0.3-0.1,0.7,0.2,0.9
	c0.1,0.1,0.2,0.1,0.3,0.1c0.2,0,0.5-0.1,0.6-0.3l0.8-1.3l0.8,1.3c0.1,0.2,0.4,0.3,0.6,0.3c0.1,0,0.2,0,0.3-0.1
	c0.3-0.2,0.4-0.6,0.2-0.9l-0.8-1.3H35c0.4,0,0.7-0.3,0.7-0.7C35.6,8.5,35.3,8.2,35,8.2"/>
<g>
</g>
<g>
</g>
<g>
</g>
<g>
</g>
<g>
</g>
<g>
</g>
</svg>
