<?xml version="1.0" encoding="utf-8"?>
<!-- Generator: Adobe Illustrator 18.0.0, SVG Export Plug-In . SVG Version: 6.00 Build 0)  -->
<!DOCTYPE svg PUBLIC "-//W3C//DTD SVG 1.1//EN" "http://www.w3.org/Graphics/SVG/1.1/DTD/svg11.dtd">
<svg version="1.1" id="Capa_1" xmlns="http://www.w3.org/2000/svg" xmlns:xlink="http://www.w3.org/1999/xlink" x="0px" y="0px"
	 viewBox="0 0 36 20.2" enable-background="new 0 0 36 20.2" xml:space="preserve">
<path fill="#191B15" d="M18,0C6.2,0,0,8.7,0,10.1c0,1.4,6.2,10.1,18,10.1c11.8,0,18-8.7,18-10.1C36,8.7,29.8,0,18,0 M18,17.8
	c-4.4,0-8-3.5-8-7.8c0-4.3,3.6-7.8,8-7.8c4.4,0,8,3.5,8,7.8C26,14.4,22.4,17.8,18,17.8 M22,10.1c0,2.1-1.8,3.9-4,3.9
	c-2.2,0-4-1.7-4-3.9c0-2.1,1.8-3.9,4-3.9c1.2,0-0.7,3.1,0,3.9C18.6,10.8,22,9.1,22,10.1"/>
</svg>
