<?xml version="1.0" encoding="utf-8"?>
<!-- Generator: Adobe Illustrator 18.0.0, SVG Export Plug-In . SVG Version: 6.00 Build 0)  -->
<!DOCTYPE svg PUBLIC "-//W3C//DTD SVG 1.1//EN" "http://www.w3.org/Graphics/SVG/1.1/DTD/svg11.dtd">
<svg version="1.1" id="Capa_1" xmlns="http://www.w3.org/2000/svg" xmlns:xlink="http://www.w3.org/1999/xlink" x="0px" y="0px"
	 viewBox="0 0 40 16" enable-background="new 0 0 40 16" xml:space="preserve">
<path d="M28.1,3.1c0-0.2-0.1-0.5-0.3-0.6l-0.3-0.3c-0.2-0.2-0.4-0.3-0.6-0.3c-0.2,0-0.5,0.1-0.6,0.3l-1.6,1.6V2
	c0-0.2-0.1-0.3-0.3-0.3H12.8c-0.2,0-0.3,0.1-0.3,0.3v11.5c0,0.2,0.1,0.3,0.3,0.3h11.5c0.2,0,0.3-0.1,0.3-0.3V7l3.2-3.2
	C28,3.6,28.1,3.4,28.1,3.1 M24,13.2H13.1V2.4H24v2l-5.7,5.7c0,0-0.1,0.1-0.1,0.1l-0.6,1.7c0,0.1,0,0.2,0.1,0.3
	c0.1,0.1,0.1,0.1,0.2,0.1c0,0,0.1,0,0.1,0l1.7-0.6c0,0,0.1,0,0.1-0.1L24,7.6V13.2z M19.5,11.2l-1.1,0.4l0.4-1.1l6.6-6.6l0.7,0.7
	L19.5,11.2z M27.4,3.3l-0.9,0.9l-0.4-0.4l-0.4-0.4l0.9-0.9c0,0,0.1-0.1,0.2-0.1c0.1,0,0.1,0,0.2,0.1l0.3,0.3v0c0,0,0.1,0.1,0.1,0.2
	C27.5,3.2,27.4,3.3,27.4,3.3"/>
<path d="M22.2,5.4h-0.3c-0.2,0-0.3,0.1-0.3,0.3c0,0.2,0.1,0.3,0.3,0.3h0.3c0.2,0,0.3-0.1,0.3-0.3C22.5,5.6,22.4,5.4,22.2,5.4"/>
<path d="M20.6,5.4h-5.7c-0.2,0-0.3,0.1-0.3,0.3c0,0.2,0.1,0.3,0.3,0.3h5.7c0.2,0,0.3-0.1,0.3-0.3C20.9,5.6,20.7,5.4,20.6,5.4"/>
<path d="M20.3,7.2h-5.4c-0.2,0-0.3,0.1-0.3,0.3c0,0.2,0.1,0.3,0.3,0.3h5.4c0.2,0,0.3-0.1,0.3-0.3C20.6,7.4,20.4,7.2,20.3,7.2"/>
<path d="M18.3,9h-3.4c-0.2,0-0.3,0.1-0.3,0.3c0,0.2,0.1,0.3,0.3,0.3h3.4c0.2,0,0.3-0.1,0.3-0.3C18.6,9.2,18.5,9,18.3,9"/>
<path d="M16.8,10.8h-1.9c-0.2,0-0.3,0.1-0.3,0.3c0,0.2,0.1,0.3,0.3,0.3h1.9c0.2,0,0.3-0.1,0.3-0.3C17.2,11,17,10.8,16.8,10.8"/>
<g>
</g>
<g>
</g>
<g>
</g>
<g>
</g>
<g>
</g>
<g>
</g>
</svg>
