<?xml version="1.0" encoding="utf-8"?>
<!-- Generator: Adobe Illustrator 18.0.0, SVG Export Plug-In . SVG Version: 6.00 Build 0)  -->
<!DOCTYPE svg PUBLIC "-//W3C//DTD SVG 1.1//EN" "http://www.w3.org/Graphics/SVG/1.1/DTD/svg11.dtd">
<svg version="1.1" id="Capa_1" xmlns="http://www.w3.org/2000/svg" xmlns:xlink="http://www.w3.org/1999/xlink" x="0px" y="0px"
	 viewBox="0 0 439.7 103.2" enable-background="new 0 0 439.7 103.2" xml:space="preserve">
<g>
	<g>
		<g>
			<path fill="#FFFFFF" d="M294.7,53.3c0-0.4,0.2-0.6,0.6-0.6h10.5c0.3,0,0.5,0.2,0.5,0.5v1.8c0,0.3-0.1,0.5-0.6,0.5h-7.8v4.9h6.9
				c0.4,0,0.6,0.2,0.6,0.5v1.8c0,0.3-0.1,0.5-0.6,0.5h-6.9v5.6h8c0.3,0,0.5,0.2,0.5,0.5v1.7c0,0.4-0.1,0.5-0.5,0.5h-10.6
				c-0.4,0-0.6-0.2-0.6-0.5V53.3z"/>
			<path fill="#FFFFFF" d="M320.8,71.7h-2c-0.4,0-0.5-0.2-0.5-0.5v-0.9l-0.1,0c-1.1,0.8-3.1,1.7-4.8,1.7c-3.9,0-4.2-2.3-4.2-5.3
				v-8.4c0-0.3,0.1-0.6,0.5-0.6h2.1c0.4,0,0.5,0.2,0.5,0.6v8c0,1.7,0.3,2.8,2.1,2.8c1.2,0,3.1-0.9,3.9-1.3v-9.5
				c0-0.3,0.1-0.6,0.5-0.6h2c0.4,0,0.5,0.2,0.5,0.6v12.9C321.3,71.5,321.2,71.7,320.8,71.7z"/>
			<path fill="#FFFFFF" d="M328,71.2c0,0.3-0.1,0.5-0.5,0.5h-2.1c-0.4,0-0.5-0.2-0.5-0.5V58.3c0-0.4,0.1-0.6,0.5-0.6h2
				c0.4,0,0.6,0.2,0.6,0.6v1.3l0.1,0.1c0.9-0.8,2.9-1.8,4.2-2c0.4-0.1,0.6,0,0.7,0.5l0.2,1.9c0,0.4,0.1,0.6-0.5,0.7
				c-1.6,0.3-3.6,0.9-4.6,1.3V71.2z"/>
			<path fill="#FFFFFF" d="M340.6,71.9c-5.7,0-6.1-4.2-6.1-7.4c0-2.7,0.6-7,6.1-7c5.5,0,6.3,3.7,6.3,7
				C346.9,67.7,346.5,71.9,340.6,71.9z M340.6,60.2c-2.4,0-3,1.5-3,4.5c0,3,0.5,4.5,2.9,4.5c2.6,0,3.1-1.5,3.1-4.5
				C343.7,61.7,343.2,60.2,340.6,60.2z"/>
			<path fill="#FFFFFF" d="M356.4,72c-0.9,0-2.3-0.2-3.6-0.6l0,0v5c0,0.3-0.1,0.6-0.5,0.6h-2c-0.5,0-0.5-0.2-0.5-0.6V58.3
				c0-0.4,0.1-0.6,0.5-0.6h2c0.4,0,0.5,0.2,0.5,0.6v0.9l0.1,0.1c1-0.7,2.9-1.7,4.5-1.7c3.7,0,4.7,2.8,4.7,7.1
				C362,69.3,360.9,72,356.4,72z M356.6,60.3c-1.2,0-3,0.8-3.8,1.3v7.1c1.3,0.4,2.3,0.5,3.3,0.5c2.1,0,2.8-1.1,2.8-4.7
				C358.8,61,358.1,60.3,356.6,60.3z"/>
			<path fill="#FFFFFF" d="M367.5,65.6c0.1,2.9,1.1,3.7,3.5,3.7c1,0,2.6-0.2,3.7-0.3c0.5-0.1,0.7-0.1,0.8,0.5l0.2,0.9
				c0.1,0.4,0,0.7-0.5,0.9c-1.1,0.4-3.2,0.7-4.6,0.7c-5.5,0-6.2-3.5-6.2-7.2c0-2.8,0.5-7.3,6.1-7.3c5.1,0,6,3.3,6.1,6.4
				c0,1-0.3,1.7-1.4,1.7H367.5z M367.5,63.4h5.6c0-1.7-0.5-3.4-2.8-3.4C368.3,60,367.7,61.3,367.5,63.4z"/>
			<path fill="#FFFFFF" d="M387.9,70.1c-1.4,1.1-3.3,1.9-5.3,1.9c-3,0-3.9-1.7-3.9-4.1c0-3.3,1.8-4.8,5.4-4.8h3.7v-0.7
				c0-1.7-0.6-2.3-3-2.3c-0.9,0-2.7,0.1-3.9,0.3c-0.6,0.1-0.7,0.1-0.8-0.3l-0.3-1.1c-0.1-0.4,0-0.6,0.7-0.9c1.2-0.4,3.5-0.6,4.8-0.6
				c4.9,0,5.5,2,5.5,5.2v5.5c0,1.2,0.1,1.2,1,1.3c0.4,0,0.5,0.1,0.5,0.4v1.2c0,0.3-0.2,0.5-0.7,0.6c-0.5,0.1-0.9,0.1-1.3,0.1
				C389.1,71.8,388.2,71.4,387.9,70.1L387.9,70.1z M387.7,65.3h-3.5c-1.4,0-2.3,0.5-2.3,2.4c0,1.3,0.4,1.7,1.8,1.7
				c1.2,0,3-0.7,4.1-1.3V65.3z"/>
			<path fill="#FFFFFF" d="M406,71.7H404c-0.4,0-0.5-0.2-0.5-0.5l0-8c0-1.7-0.4-2.8-2.1-2.8c-1.1,0-3.1,0.9-3.9,1.3v9.5
				c0,0.3-0.1,0.5-0.5,0.5h-2c-0.4,0-0.5-0.2-0.5-0.5V58.3c0-0.4,0.1-0.6,0.5-0.6h2c0.4,0,0.5,0.2,0.5,0.6v0.9c0,0,0.1,0,0.1,0
				c1.1-0.7,3.1-1.7,4.8-1.7c3.9,0,4.2,2.5,4.2,5.4v8.3C406.6,71.5,406.4,71.7,406,71.7z"/>
			<path fill="#FFFFFF" d="M302.3,82.6c1.4,0,3.7,0.2,5.2,0.8c0.5,0.2,0.6,0.4,0.5,0.9l-0.3,1.2c-0.1,0.3-0.2,0.5-0.7,0.4
				c-1.4-0.2-3.1-0.4-4.6-0.4c-3.9,0-4.5,3.1-4.5,6.9c0,3.7,0.7,6.7,4.5,6.7c1.7,0,3.1-0.2,4.6-0.4c0.5-0.1,0.7,0.1,0.8,0.5l0.2,1.1
				c0.1,0.5,0,0.7-0.5,0.9c-1.4,0.6-3.9,0.9-5.3,0.9c-6.4,0-7.7-4.7-7.7-9.6C294.6,87.6,295.8,82.6,302.3,82.6z"/>
			<path fill="#FFFFFF" d="M316.2,102c-5.7,0-6.1-4.2-6.1-7.4c0-2.7,0.6-7,6.1-7c5.5,0,6.3,3.7,6.3,7
				C322.5,97.8,322.2,102,316.2,102z M316.3,90.2c-2.4,0-3,1.5-3,4.5c0,3,0.5,4.5,2.9,4.5c2.6,0,3.1-1.5,3.1-4.5
				C319.4,91.7,318.9,90.2,316.3,90.2z"/>
			<path fill="#FFFFFF" d="M345.3,101.7h-2.1c-0.4,0-0.5-0.2-0.5-0.5v-8.1c0-2.1-0.5-2.7-1.9-2.7c-1.1,0-2.8,0.8-3.7,1.3
				c0,0.3,0,0.8,0,1.5v8.1c0,0.3-0.1,0.5-0.5,0.5h-2.1c-0.4,0-0.5-0.2-0.5-0.5v-8.2c0-1.7-0.5-2.6-1.9-2.6c-1,0-2.6,0.7-3.7,1.3v9.5
				c0,0.3-0.1,0.5-0.5,0.5h-2.1c-0.4,0-0.5-0.2-0.5-0.5V88.3c0-0.4,0.1-0.6,0.5-0.6h2c0.4,0,0.6,0.2,0.6,0.6v0.8l0,0
				c1.1-0.8,2.7-1.6,4.3-1.7c1.7,0,3,0.3,3.9,2c1.4-1.1,3.2-2,5-2c3.8,0,4.1,2.5,4.1,5.3v8.4C345.8,101.5,345.7,101.7,345.3,101.7z"
				/>
			<path fill="#FFFFFF" d="M368.8,101.7h-2.1c-0.4,0-0.5-0.2-0.5-0.5v-8.1c0-2.1-0.5-2.7-1.9-2.7c-1.1,0-2.8,0.8-3.7,1.3
				c0,0.3,0,0.8,0,1.5v8.1c0,0.3-0.1,0.5-0.5,0.5H358c-0.4,0-0.5-0.2-0.5-0.5v-8.2c0-1.7-0.5-2.6-1.9-2.6c-1,0-2.6,0.7-3.7,1.3v9.5
				c0,0.3-0.1,0.5-0.5,0.5h-2.1c-0.4,0-0.5-0.2-0.5-0.5V88.3c0-0.4,0.1-0.6,0.5-0.6h2c0.4,0,0.6,0.2,0.6,0.6v0.8l0,0
				c1.1-0.8,2.7-1.6,4.3-1.7c1.7,0,3,0.3,3.9,2c1.4-1.1,3.2-2,5-2c3.8,0,4.1,2.5,4.1,5.3v8.4C369.3,101.5,369.2,101.7,368.8,101.7z"
				/>
			<path fill="#FFFFFF" d="M374.4,85.7c-1.5,0-1.7-0.8-1.7-1.7c0-0.9,0.3-1.6,1.7-1.6c1.4,0,1.7,0.7,1.7,1.6
				C376.1,84.9,375.8,85.7,374.4,85.7z M375.9,101.2c0,0.3-0.1,0.5-0.5,0.5h-2c-0.4,0-0.6-0.2-0.6-0.5V88.3c0-0.4,0.2-0.5,0.6-0.5h2
				c0.4,0,0.5,0.2,0.5,0.5V101.2z"/>
			<path fill="#FFFFFF" d="M384.1,102c-1.4,0-3.3-0.2-4.4-0.6c-0.6-0.2-0.7-0.5-0.6-0.9l0.2-0.9c0.1-0.5,0.3-0.5,0.7-0.4
				c1.3,0.2,3.1,0.3,4.1,0.3c1.8,0,2.6-0.5,2.6-1.6c0-1.3-0.5-1.6-2.3-1.9c-2.8-0.4-5.3-1-5.3-4.1c0-2.8,2.2-4.3,5.4-4.3
				c1.2,0,3.1,0.2,4.3,0.6c0.5,0.2,0.7,0.4,0.6,0.9l-0.2,1c-0.1,0.4-0.3,0.5-0.8,0.4c-1.2-0.1-2.8-0.3-3.9-0.3
				c-1.8,0-2.3,0.5-2.3,1.6c0,1.1,0.7,1.3,2.4,1.5c2.7,0.4,5.2,0.9,5.2,4.3C389.9,100.9,387.1,102,384.1,102z"/>
			<path fill="#FFFFFF" d="M397.2,102c-1.4,0-3.3-0.2-4.4-0.6c-0.6-0.2-0.7-0.5-0.6-0.9l0.2-0.9c0.1-0.5,0.3-0.5,0.7-0.4
				c1.3,0.2,3.1,0.3,4.1,0.3c1.8,0,2.6-0.5,2.6-1.6c0-1.3-0.5-1.6-2.3-1.9c-2.8-0.4-5.2-1-5.2-4.1c0-2.8,2.2-4.3,5.4-4.3
				c1.2,0,3.1,0.2,4.3,0.6c0.5,0.2,0.7,0.4,0.6,0.9l-0.2,1c-0.1,0.4-0.3,0.5-0.8,0.4c-1.2-0.1-2.8-0.3-3.9-0.3
				c-1.8,0-2.3,0.5-2.3,1.6c0,1.1,0.7,1.3,2.4,1.5c2.7,0.4,5.2,0.9,5.2,4.3C403,100.9,400.2,102,397.2,102z"/>
			<path fill="#FFFFFF" d="M407.6,85.7c-1.5,0-1.7-0.8-1.7-1.7c0-0.9,0.3-1.6,1.7-1.6c1.4,0,1.7,0.7,1.7,1.6
				C409.3,84.9,409.1,85.7,407.6,85.7z M409.1,101.2c0,0.3-0.1,0.5-0.5,0.5h-2c-0.4,0-0.6-0.2-0.6-0.5V88.3c0-0.4,0.2-0.5,0.6-0.5h2
				c0.4,0,0.5,0.2,0.5,0.5V101.2z"/>
			<path fill="#FFFFFF" d="M418.5,102c-5.7,0-6.1-4.2-6.1-7.4c0-2.7,0.6-7,6.1-7c5.5,0,6.3,3.7,6.3,7
				C424.8,97.8,424.4,102,418.5,102z M418.5,90.2c-2.4,0-3,1.5-3,4.5c0,3,0.5,4.5,2.9,4.5c2.6,0,3.1-1.5,3.1-4.5
				C421.6,91.7,421.1,90.2,418.5,90.2z"/>
			<path fill="#FFFFFF" d="M439.1,101.7h-2.1c-0.4,0-0.5-0.2-0.5-0.5l0-8c0-1.7-0.4-2.8-2.1-2.8c-1.1,0-3.1,0.9-3.9,1.3v9.5
				c0,0.3-0.1,0.5-0.5,0.5h-2c-0.4,0-0.5-0.2-0.5-0.5V88.3c0-0.4,0.1-0.6,0.5-0.6h2c0.4,0,0.5,0.2,0.5,0.6v0.9c0,0,0.1,0,0.1,0
				c1.1-0.7,3.1-1.7,4.8-1.7c3.9,0,4.2,2.5,4.2,5.4v8.3C439.7,101.5,439.6,101.7,439.1,101.7z"/>
		</g>
		<g>
			<g>
				<g>
					<path fill="#FFFFFF" d="M82.5,39.8c0,0,59-7.7,60.6-8c2.6-0.4,4.8-0.9,6.9-1.5c4.8-1.3,9.2-3.3,13-6c3.7-2.5,7.2-6.2,10.6-10.2
						c2.2-2.6,4.5-5.9,6.6-9.1V3.5c-2.5,3.8-5,7.1-7.6,9.9c-3.4,3.8-7,7-10.6,9.3c-3.8,2.4-8,4.3-12.6,5.4c-2.1,0.5-4.3,0.9-6.7,1.3
						c-1.6,0.2-3.3,0.4-4.9,0.6c-0.7,0.1-55.3,5.9-55.3,5.9V39.8z"/>
					<path fill="#FFFFFF" d="M161.6,29.9c-3.7,2.1-8,3.7-12.7,4.7c-2,0.4-4.2,0.7-6.7,1c-1.5,0.2-3,0.3-4.4,0.4
						c-0.8,0.1-1.6,0.1-2.4,0.2c-18.1,1.6-36,3.4-52.9,5V45c16.9-2.1,35-4.2,53.1-6.3c0.8-0.1,1.6-0.2,2.4-0.3
						c1.5-0.2,3-0.3,4.4-0.5c2.6-0.3,4.8-0.7,6.9-1.2c4.9-1.1,9.3-2.8,13.2-5.2c3.8-2.3,7.2-5.5,10.8-9.5c2.2-2.4,4.8-5.9,7.1-9.2
						v-1.4c-2.8,3.8-5.4,6.9-8,9.6C168.9,24.8,165.3,27.8,161.6,29.9z"/>
					<path fill="#FFFFFF" d="M171.9,28.9c-3.6,3.3-7.4,5.9-11.2,7.8c-3.7,1.8-7.9,3.1-12.8,3.9c-2,0.3-4.2,0.6-6.7,0.8l-58.8,4.9
						v3.8l52.3-5.6l6.8-0.7c2.5-0.3,4.8-0.6,6.8-1c5-1,9.3-2.4,13.2-4.4c3.9-2,7.9-5.3,11.5-8.9c2.5-2.4,4.8-5.4,7.3-8.6v-1.3
						C177.5,23.3,174.7,26.4,171.9,28.9z"/>
					<path fill="#FFFFFF" d="M157.7,48.9c-3.4,1.9-6,3-10.9,3.6c-3,0.3-6,0.5-8.9,0.6c-1.4,0.1-2.8,0.1-4.3,0.2
						c-8.9,0.5-17.6,1.1-26.5,1.7l-24.6,1.7v3.8l24.8-2.3c8-0.7,17.3-1.6,26.4-2.3l6.6-0.5c2.6-0.2,4.7-0.4,6.7-0.7
						c5-0.7,9.3-1.7,13.1-3.1c4.1-1.5,8-3.9,11.8-6.8c3.5-2.5,8.3-7.6,8.3-7.6v-1.4c-3.2,3.1-5,4.8-8.4,7.1
						C167.8,45.7,160.8,47.2,157.7,48.9z"/>
					<path fill="#FFFFFF" d="M159,56.2c-3.7,1.1-7.9,1.8-12.8,2.3c-2,0.2-4.1,0.3-6.5,0.4l-6.6,0.3c-16.3,0.8-32.6,1.6-50.5,2.6v3.8
						c17.1-1.3,33.9-2.6,50.7-3.8l6.6-0.5c2.5-0.2,4.6-0.4,6.6-0.6c5-0.6,9.3-1.4,13.1-2.7c4.2-1.3,8.3-3.3,12.2-5.8
						c2.9-1.8,5.7-4,8.7-6.6v-0.1c-3.3,2.8-6.4,3.4-9.5,5.3C167.1,53.2,163,55,159,56.2z"/>
					<path fill="#FFFFFF" d="M158.3,62.6c-3.7,0.9-7.8,1.4-12.7,1.8c-1.9,0.1-4,0.2-6.5,0.3l-6.5,0.2c-16.4,0.6-33.1,1.3-50.1,2.1
						v3.8c16.9-1.2,33.5-2.3,50.2-3.3l6.5-0.4c2.5-0.1,4.6-0.3,6.5-0.5c5.1-0.5,9.2-1.2,13-2.2c4.3-1.1,8.5-2.7,12.4-4.8
						c3-1.6,6.1-3.6,9.2-5.9V52c-3.4,2.5-6.7,4.5-9.9,6.1C166.6,60.1,162.5,61.6,158.3,62.6z"/>
					<path fill="#FFFFFF" d="M157.8,68.8c-3.8,0.7-7.8,1.1-12.7,1.4c-1.9,0.1-3.8,0.2-6.4,0.2L82.5,72v3.8l49.8-2.6l6.4-0.3
						c2.5-0.1,4.6-0.2,6.5-0.4c5-0.4,9.1-0.9,12.9-1.7c4.3-0.9,8.6-2.2,12.5-3.9c3.2-1.4,6.4-3,9.7-5.1v-1.5
						c-3.6,2.1-6.9,3.8-10.3,5.1C166.2,66.9,162,68,157.8,68.8z"/>
					<path fill="#FFFFFF" d="M157.3,75.1c-6.9,0.9-14,1-20.8,1.1c-1.6,0-3.1,0-4.7,0.1l-49.3,0.9V81l49.4-2.1
						c1.6-0.1,3.1-0.1,4.7-0.2c6.9-0.3,14-0.6,21-1.7c4.4-0.7,8.7-1.7,12.6-3.1c3.3-1.1,6.7-2.5,10.1-4.2v-1.5
						c-3.6,1.7-7.2,3.1-10.6,4.2C165.9,73.6,161.7,74.5,157.3,75.1z"/>
					<path fill="#FFFFFF" d="M157,81.4c-6.5,0.5-13.1,0.5-19.4,0.5c-2,0-4,0-6,0c-16.3,0.1-32.5,0.2-49,0.3v3.8
						c15.7-0.5,32.4-1.1,49.1-1.6c2-0.1,4-0.1,5.9-0.2c6.4-0.2,13.1-0.3,19.6-1c4.6-0.5,8.7-1.2,12.7-2.2c3.5-0.9,7-2,10.6-3.4v-1.4
						c-3.7,1.3-7.4,2.4-10.9,3.2C165.5,80.4,161.4,81,157,81.4z"/>
					<path fill="#FFFFFF" d="M156.7,87.6c-2.7,0.1-5.6,0.2-8.9,0.2c-1.2,0-2.5,0-3.7,0l-12.7-0.2c-8.7-0.1-17.3-0.1-25.4-0.1
						l-23.4,0v3.8l23.5-0.6c8.1-0.2,16.7-0.4,25.4-0.6l12.7-0.2c3.5-0.1,8.1-0.2,12.7-0.5c4.6-0.3,8.7-0.8,12.7-1.4
						c3.6-0.6,7.2-1.4,10.9-2.3v-1.4c-3.8,0.9-7.5,1.6-11.1,2.1C165.3,87.1,161.2,87.4,156.7,87.6z"/>
					<path fill="#FFFFFF" d="M143.9,93.6l-12.7-0.1C115.1,93.3,99,93,82.5,92.7v3.8c15.7-0.1,32.3-0.2,48.7-0.4l12.7-0.2
						c4.3-0.1,8.4-0.1,12.7-0.3c8.7-0.3,16.5-0.9,23.8-1.9v-1.3c-7.3,0.8-15.1,1.2-23.8,1.3C152.4,93.7,148.1,93.7,143.9,93.6z"/>
					<polygon fill="#FFFFFF" points="180.4,100.4 82.5,97.9 82.5,101.7 180.4,101.7 					"/>
				</g>
				<g>
					<path fill="#FFFFFF" d="M171.6,36.1c-3.7,3-6.6,5.1-11.1,7c-4,1.6-8.2,2.2-13.1,2.9c-3.1,0.4-6.4,1.1-9.5,1.3
						c-1.3,0.1-2.6,0.2-3.9,0.3l-51.5,3.8v3.8l51.7-5l6.7-0.6c2.5-0.2,4.7-0.5,6.7-0.8c5-0.8,9.3-2,13.2-3.8c4-1.8,8.1-4.7,11.8-7.9
						c2.6-2.2,5-4.9,7.7-7.9v-1.4C177.1,31.1,174.4,33.8,171.6,36.1z"/>
				</g>
			</g>
			<g>
				<path fill="#FFFFFF" d="M222,3.5c0,0,17.6,28.1,20.8,33.2c3.2,5.1,6.9,9.2,19.9,12c13,2.8,18.7,4.1,18.7,4.1v1
					c0,0-8.3-1.8-18.9-4.1c-10.7-2.4-15-3.2-19.9-9.9c-4-5.6-20.7-29.5-20.7-29.5V3.5z"/>
				<path fill="#FFFFFF" d="M222,35.6c0,0,16,16.8,20.7,21.6c4.9,5.1,11.2,7,19.9,8.6c8.3,1.5,18.8,3.2,18.8,3.2v0.9
					c0,0-9.9-1.6-18.8-3.2c-8.8-1.5-15-2.3-20-7c-4.5-4.2-20.6-19.3-20.6-19.3V35.6z"/>
				<path fill="#FFFFFF" d="M222,43.1c0,0,15.2,14.2,20.7,19c5,4.5,9,5.8,20,7.8c11,1.9,18.8,3.2,18.8,3.2v1c0,0-9.9-1.6-18.8-3
					c-8.9-1.4-14.6-2-19.9-6.3c-6.2-5-20.7-16.9-20.7-16.9V43.1z"/>
				<path fill="#FFFFFF" d="M222,51.2c0,0,17.4,13.8,20.7,16.2c3.3,2.4,7.6,5.2,20.1,7c12.4,1.8,18.7,2.7,18.7,2.7v1.1
					c0,0-11.2-1.6-18.7-2.6c-7.5-0.9-13.3-1.3-20-5.8c-6.6-4.4-20.7-14.3-20.7-14.3V51.2z"/>
				<path fill="#FFFFFF" d="M222,59c0,0,17.5,11.6,20.8,13.5c3.3,1.8,7.2,4.8,19.9,6.5c12.8,1.6,18.7,2.4,18.7,2.4v1
					c0,0-10.6-1.2-18.8-2.1c-8.2-0.9-13.9-2.1-20-5.5c-6.1-3.4-20.7-11.9-20.7-11.9V59z"/>
				<path fill="#FFFFFF" d="M222,66.7c0,0,15.4,8.4,20.7,11c5.8,2.9,10.9,4.3,20,5.4c9,1.1,18.8,2.1,18.8,2.1v0.9
					c0,0-9.1-1-18.8-1.9c-9.6-0.9-13.1-1.3-20-4.4c-6.2-2.8-20.7-9.5-20.7-9.5V66.7z"/>
				<path fill="#FFFFFF" d="M222,74.6c0,0,12.2,5.2,20.8,8.6c8.4,3.3,14.9,3.6,20,4.2c2.3,0.3,18.7,1.9,18.7,1.9v0.9
					c0,0-9.8-0.8-18.7-1.6c-8.9-0.8-12.8-1.1-20-3.5c-7.3-2.4-20.7-7.1-20.7-7.1V74.6z"/>
				<path fill="#FFFFFF" d="M222,82.6c0,0,12.3,3.8,20.7,6c8.4,2.2,16.1,3.1,20,3.4c3.9,0.3,18.7,1.5,18.7,1.5v0.9
					c0,0-8.5-0.6-18.8-1.3c-8.4-0.6-15.1-1.2-20-2.3c-5.4-1.2-20.7-4.8-20.7-4.8V82.6z"/>
				<path fill="#FFFFFF" d="M222,90.5c0,0,10.1,1.7,20.7,3.5c8,1.3,18.8,2.2,19.9,2.2c1.2,0.1,18.8,1.3,18.8,1.3v0.9
					c0,0-11.3-0.6-18.8-1c-7.8-0.4-15.6-0.9-20-1.4c-9.9-1-20.7-2.4-20.7-2.4V90.5z"/>
				<path fill="#FFFFFF" d="M222,98.6c0,0,15.9,0.6,20.7,0.7c4.8,0.1,38.7,1.5,38.7,1.5v0.9H222V98.6z"/>
				<path fill="#FFFFFF" d="M262.7,53c-14.4-3.1-17.6-8.4-20.1-11.6c-2.4-3.3-20.6-29.9-20.6-29.9v6c0.7,0.9,16.3,21.3,20.7,27
					c4.9,6.3,12.6,7.8,20,9.4c7.3,1.6,18.8,3.8,18.8,3.8v-0.8C281.5,56.8,266.4,53.8,262.7,53z"/>
				<path fill="#FFFFFF" d="M262.7,57.2c-11.8-2.3-16.6-6-20.1-10.6c-3.5-4.5-20.6-27.1-20.6-27.1v5.7c0.7,0.8,16.4,19.5,20.6,24.3
					c4.9,5.6,11.8,7.1,20.1,8.6c8.3,1.5,18.8,3.5,18.8,3.5v-0.8C281.5,60.8,269.5,58.6,262.7,57.2z"/>
				<path fill="#FFFFFF" d="M262.7,61.6c-12.3-2.4-14.8-4.3-20-10c-3.3-3.6-20-23.3-20.7-24.1v5.3c0,0,15.6,16.6,20.6,21.6
					c6.6,6.4,12.8,6.9,20.1,8.3c7.3,1.3,18.8,3.4,18.8,3.4V65C281.5,65,267.6,62.6,262.7,61.6z"/>
			</g>
		</g>
		<g>
			<polygon fill="#FFFFFF" points="208.9,102.5 208.9,45.1 123.2,45.1 123.2,102.5 208.9,102.5 			"/>
			<path fill="#5B9ACB" d="M209.7,103.2h-87.2V44.4h87.2V103.2z M124,101.7h84.2V45.9H124V101.7z"/>
		</g>
		<g>
			<polygon fill="#5B9ACB" points="167,53.3 170,53.3 167.6,55.1 168.5,58.1 166.1,56.3 163.7,58.1 164.7,55.1 162.2,53.3 
				165.2,53.3 166.1,50.4 167,53.3 			"/>
			<polygon fill="#5B9ACB" points="167.1,91.5 170.1,91.5 167.7,93.3 168.6,96.2 166.2,94.4 163.8,96.2 164.8,93.3 162.4,91.5 
				165.3,91.5 166.2,88.7 167.1,91.5 			"/>
			<polygon fill="#5B9ACB" points="176.6,89 179.6,89 177.1,90.8 178.1,93.6 175.7,91.9 173.3,93.6 174.2,90.8 171.8,89 174.8,89 
				175.7,86.2 176.6,89 			"/>
			<polygon fill="#5B9ACB" points="176.6,55.8 179.6,55.8 177.1,57.6 178.1,60.5 175.7,58.7 173.3,60.5 174.2,57.6 171.8,55.8 
				174.8,55.8 175.7,53 176.6,55.8 			"/>
			<polygon fill="#5B9ACB" points="183.6,62.8 186.6,62.8 184.2,64.6 185.1,67.5 182.7,65.7 180.3,67.5 181.3,64.6 178.8,62.8 
				181.8,62.8 182.7,60.1 183.6,62.8 			"/>
			<polygon fill="#5B9ACB" points="183.6,82.1 186.6,82.1 184.2,83.9 185.1,86.7 182.7,85 180.3,86.7 181.3,83.9 178.8,82.1 
				181.8,82.1 182.7,79.3 183.6,82.1 			"/>
			<polygon fill="#5B9ACB" points="186.2,72.3 189.2,72.3 186.8,74.1 187.7,77 185.3,75.2 182.9,77 183.9,74.1 181.5,72.3 
				184.4,72.3 185.3,69.5 186.2,72.3 			"/>
			<polygon fill="#5B9ACB" points="157.4,55.8 160.3,55.8 157.9,57.7 158.9,60.5 156.5,58.7 154.1,60.5 155,57.7 152.6,55.8 
				155.6,55.8 156.5,53.1 157.4,55.8 			"/>
			<polygon fill="#5B9ACB" points="150.5,62.9 153.5,62.9 151.1,64.7 152,67.5 149.6,65.8 147.3,67.5 148.2,64.7 145.8,62.9 
				148.7,62.9 149.6,60.1 150.5,62.9 			"/>
			<polygon fill="#5B9ACB" points="148,72.3 151,72.3 148.6,74.1 149.5,77 147.1,75.2 144.7,77 145.7,74.1 143.2,72.3 146.2,72.3 
				147.1,69.5 148,72.3 			"/>
			<polygon fill="#5B9ACB" points="150.5,82.1 153.5,82.1 151.1,83.9 152,86.7 149.6,85 147.3,86.7 148.2,83.9 145.8,82.1 
				148.7,82.1 149.6,79.3 150.5,82.1 			"/>
			<polygon fill="#5B9ACB" points="157.5,89 160.4,89 158,90.8 159,93.7 156.6,91.9 154.2,93.7 155.1,90.8 152.7,89 155.7,89 
				156.6,86.2 157.5,89 			"/>
		</g>
	</g>
	<g>
		<g>
			<path fill="#F5F5F5" d="M1.1,2.2h5v1H2.3v3.1h3.5v1H2.3v4.2H1.1V2.2z"/>
			<path fill="#F5F5F5" d="M13.3,8.2c0,2.5-1.7,3.6-3.3,3.6c-1.8,0-3.2-1.3-3.2-3.4c0-2.2,1.5-3.6,3.3-3.6C12,4.7,13.3,6.1,13.3,8.2
				z M8,8.2c0,1.5,0.8,2.6,2,2.6c1.2,0,2-1.1,2-2.6c0-1.1-0.6-2.6-2-2.6C8.6,5.6,8,7,8,8.2z"/>
			<path fill="#F5F5F5" d="M20.3,9.7c0,0.7,0,1.3,0.1,1.8h-1.1l-0.1-1.1h0c-0.3,0.5-1,1.2-2.2,1.2c-1.1,0-2.3-0.6-2.3-2.9V4.9h1.2
				v3.7c0,1.3,0.4,2.1,1.5,2.1c0.8,0,1.4-0.6,1.6-1.1c0.1-0.2,0.1-0.4,0.1-0.6V4.9h1.2V9.7z"/>
			<path fill="#F5F5F5" d="M22.3,6.7c0-0.7,0-1.3-0.1-1.8h1.1L23.4,6h0c0.3-0.6,1.1-1.3,2.2-1.3c0.9,0,2.4,0.6,2.4,2.8v4h-1.2V7.7
				c0-1.1-0.4-2-1.5-2c-0.8,0-1.4,0.6-1.6,1.2c-0.1,0.2-0.1,0.4-0.1,0.6v4h-1.2V6.7z"/>
			<path fill="#F5F5F5" d="M35.6,1.8v8.1c0,0.6,0,1.3,0.1,1.7h-1.1l-0.1-1.2h0c-0.4,0.7-1.2,1.3-2.3,1.3c-1.6,0-2.9-1.4-2.9-3.4
				c0-2.2,1.4-3.6,3-3.6c1,0,1.7,0.5,2,1h0v-4H35.6z M34.4,7.6c0-0.2,0-0.4-0.1-0.5c-0.2-0.8-0.8-1.4-1.8-1.4c-1.3,0-2,1.1-2,2.6
				c0,1.4,0.7,2.5,2,2.5c0.8,0,1.6-0.5,1.8-1.5c0-0.2,0.1-0.3,0.1-0.5V7.6z"/>
			<path fill="#F5F5F5" d="M38.2,8.4c0,1.6,1.1,2.3,2.3,2.3c0.9,0,1.4-0.2,1.9-0.3l0.2,0.9c-0.4,0.2-1.2,0.4-2.2,0.4
				c-2.1,0-3.3-1.4-3.3-3.4c0-2,1.2-3.6,3.1-3.6c2.2,0,2.8,1.9,2.8,3.2c0,0.2,0,0.4,0,0.6H38.2z M41.8,7.6c0-0.8-0.3-2-1.7-2
				c-1.2,0-1.8,1.1-1.9,2H41.8z"/>
			<path fill="#F5F5F5" d="M50.2,1.8v8.1c0,0.6,0,1.3,0.1,1.7h-1.1l-0.1-1.2h0c-0.4,0.7-1.2,1.3-2.3,1.3c-1.6,0-2.9-1.4-2.9-3.4
				c0-2.2,1.4-3.6,3-3.6c1,0,1.7,0.5,2,1h0v-4H50.2z M49,7.6c0-0.2,0-0.4-0.1-0.5c-0.2-0.8-0.8-1.4-1.8-1.4c-1.3,0-2,1.1-2,2.6
				c0,1.4,0.7,2.5,2,2.5c0.8,0,1.6-0.5,1.8-1.5C48.9,9.1,49,9,49,8.8V7.6z"/>
			<path fill="#F5F5F5" d="M54.9,11.6c0-0.5,0.1-1.1,0.1-1.7V1.8h1.2V6h0c0.4-0.7,1.2-1.2,2.3-1.2c1.7,0,2.8,1.4,2.8,3.4
				c0,2.4-1.5,3.6-3,3.6c-1,0-1.7-0.4-2.2-1.3h0L56,11.6H54.9z M56.2,8.9c0,0.2,0,0.3,0.1,0.4c0.2,0.8,0.9,1.4,1.8,1.4
				c1.3,0,2-1,2-2.6c0-1.3-0.7-2.5-2-2.5c-0.8,0-1.6,0.6-1.9,1.5c0,0.1-0.1,0.3-0.1,0.5V8.9z"/>
			<path fill="#F5F5F5" d="M63.1,4.9l1.5,4c0.2,0.4,0.3,1,0.4,1.4h0c0.1-0.4,0.3-0.9,0.4-1.4l1.3-3.9H68l-1.8,4.8
				c-0.9,2.3-1.5,3.5-2.3,4.2c-0.6,0.5-1.2,0.7-1.5,0.8l-0.3-1c0.3-0.1,0.7-0.3,1.1-0.6c0.3-0.3,0.7-0.7,1-1.4
				c0.1-0.1,0.1-0.2,0.1-0.3c0-0.1,0-0.2-0.1-0.3l-2.5-6.2H63.1z"/>
		</g>
	</g>
</g>
<g>
</g>
<g>
</g>
<g>
</g>
<g>
</g>
<g>
</g>
<g>
</g>
</svg>
