<?xml version="1.0" encoding="utf-8"?>
<!-- Generator: Adobe Illustrator 18.0.0, SVG Export Plug-In . SVG Version: 6.00 Build 0)  -->
<!DOCTYPE svg PUBLIC "-//W3C//DTD SVG 1.1//EN" "http://www.w3.org/Graphics/SVG/1.1/DTD/svg11.dtd">
<svg version="1.1" id="Capa_1" xmlns="http://www.w3.org/2000/svg" xmlns:xlink="http://www.w3.org/1999/xlink" x="0px" y="0px"
	 viewBox="0 0 304.3 113.2" enable-background="new 0 0 304.3 113.2" xml:space="preserve">
<g>
	<g>
		<path fill="#5B9ACB" d="M103.9,97c0,3.6-3.3,6.8-6.9,6.8H61.9v6H97c6.5,0,11.9-6.3,11.9-12.8V61.7h-5V97z"/>
		<path fill="#5B9ACB" d="M97,8.7c3.6,0,6.9,2.7,6.9,6.3v35.7h5V15c0-6.5-5.4-11.3-11.9-11.3H61.9v5H97z"/>
		<path fill="#5B9ACB" d="M7.9,15c0-3.6,3.6-6.3,7.2-6.3h36.8v-5H15.1C8.6,3.7,2.9,8.6,2.9,15v35.7h5V15z"/>
		<path fill="#5B9ACB" d="M15.1,103.7c-3.6,0-7.2-3.2-7.2-6.8V61.7h-5V97c0,6.5,5.8,12.8,12.2,12.8h36.8v-6H15.1z"/>
	</g>
	<polygon fill="#5B9ACB" points="2.9,14.7 2.9,89.7 9.4,103.7 18.4,107.8 38.6,109.7 72.9,109.7 98,108.9 104,103.5 106.9,96.1 
		108.9,81.6 108.9,44.7 106,12.1 98,6.7 69.7,3.7 43.9,3.7 12.1,6.1 	"/>
</g>
<g>
	<path fill="#464646" d="M129,4.7h5.2v20.4H129V4.7z"/>
	<path fill="#464646" d="M136.3,10.8h4.5v1.9h0.1c1-1.5,2.4-2.3,4.1-2.3c0.8,0,1.4,0.2,2,0.6c0.6,0.4,0.9,1,0.9,1.7h0.1
		c1-1.5,2.4-2.3,4.1-2.3c0.9,0,1.7,0.3,2.2,0.8c0.6,0.5,0.9,1.3,0.9,2.3v11.7h-4.5V15c0-0.8-0.4-1.3-1.2-1.3c-0.5,0-0.9,0.2-1.3,0.6
		l-0.3,0.3v10.6h-4.5V15c0-0.8-0.4-1.3-1.2-1.3c-0.5,0-0.9,0.2-1.3,0.6l-0.3,0.3v10.6h-4.5V10.8z"/>
	<path fill="#464646" d="M157.7,10.8h4.3v1.5h0.1c0.9-1.1,2-1.7,3.1-1.7c3.1,0.1,4.7,2.3,4.8,6.8c0,1.9-0.3,3.7-1,5.2
		c-0.7,1.6-2,2.5-3.9,2.5c-1.1,0-2.1-0.4-2.9-1.3v5.6h-4.5V10.8z M162.2,22c0.6,0.4,1.1,0.6,1.5,0.5c0.8,0,1.3-0.4,1.5-1.2
		c0.1-0.8,0.2-1.8,0.2-3.1c0-1.7-0.1-3-0.1-3.8c-0.2-0.8-0.6-1.2-1.2-1.2c-0.4,0-0.8,0.1-1.1,0.3c-0.3,0.2-0.6,0.5-0.7,0.8V22z"/>
	<path fill="#464646" d="M183.7,25.2h-4.5v-1.9l-0.1,0c-1,1.5-2.4,2.2-4.1,2.3c-2-0.1-3-1.1-3.1-3.2V10.8h4.5V21
		c0,0.8,0.4,1.3,1.2,1.3c0.5,0,1-0.2,1.3-0.6l0.3-0.3V10.8h4.5V25.2z"/>
	<path fill="#464646" d="M186,4.7h4.5v20.4H186V4.7z"/>
	<path fill="#464646" d="M200.1,15.2c-0.2-0.5-0.5-0.9-0.8-1.3c-0.4-0.4-0.8-0.6-1.4-0.6c-1,0-1.4,0.3-1.4,0.9
		c0,0.3,0.1,0.5,0.3,0.7c0.2,0.2,0.5,0.4,0.8,0.5c0.3,0.2,0.7,0.3,1.2,0.5c0.4,0.2,0.8,0.3,1.3,0.5c0.9,0.3,1.8,0.8,2.4,1.4
		c0.3,0.3,0.6,0.7,0.8,1.1c0.2,0.5,0.3,1,0.3,1.6c0,1.5-0.5,2.7-1.6,3.6c-1,0.9-2.4,1.3-4.1,1.3c-1.6,0-2.9-0.4-3.9-1.2
		c-0.5-0.4-0.9-0.8-1.3-1.3c-0.3-0.5-0.6-1-0.8-1.6l3.6-1.1c0.3,0.6,0.6,1,1,1.4c0.4,0.4,0.9,0.7,1.5,0.7c0.9,0,1.4-0.4,1.5-1.1
		c0-0.3-0.1-0.6-0.3-0.8c-0.2-0.2-0.5-0.4-0.8-0.5c-0.3-0.2-0.7-0.3-1.1-0.5c-0.4-0.1-0.9-0.3-1.3-0.5c-0.4-0.2-0.9-0.4-1.3-0.6
		c-0.4-0.2-0.8-0.5-1.2-0.8c-0.3-0.3-0.6-0.7-0.8-1.2c-0.2-0.5-0.3-1-0.3-1.6c0-0.4,0.1-0.9,0.3-1.4c0.2-0.5,0.5-1,0.9-1.5
		c0.5-0.5,1-0.9,1.7-1.2c0.7-0.3,1.6-0.5,2.5-0.5c1.2,0,2.3,0.3,3.3,0.9c1,0.6,1.7,1.6,2.2,3L200.1,15.2z"/>
	<path fill="#464646" d="M204.8,4.7h4.5v4.1h-4.5V4.7z M204.8,10.8h4.5v14.4h-4.5V10.8z"/>
	<path fill="#464646" d="M209.9,10.8h4.8l1.6,7.8h0.1l2-7.8h3.6l-4.5,14.4h-3.5L209.9,10.8z"/>
	<path fill="#464646" d="M226.8,19c0,0.7,0.1,1.4,0.4,2.2c0.3,0.8,0.9,1.3,1.7,1.3c0.6,0,1.1-0.2,1.5-0.6c0.4-0.4,0.7-0.8,0.8-1.4
		l3.1,1.1c0,0.1-0.1,0.4-0.4,0.9c-0.2,0.4-0.5,0.8-1,1.3c-0.5,0.5-1,0.9-1.7,1.2c-0.7,0.3-1.6,0.5-2.6,0.5c-2.2,0-3.8-0.8-4.8-2.3
		c-1-1.5-1.6-3.2-1.6-5.3c0-2.1,0.5-3.9,1.6-5.3c1.1-1.4,2.6-2.2,4.7-2.2c2.2,0,3.8,0.8,4.7,2.4c0.9,1.5,1.3,3.3,1.3,5.2v1H226.8z
		 M230.4,16.2c0-0.7-0.1-1.4-0.3-2c-0.2-0.6-0.8-0.9-1.6-0.9c-0.7,0-1.1,0.3-1.4,0.9c-0.3,0.6-0.4,1.3-0.4,2H230.4z"/>
	<path fill="#464646" d="M243.5,10.8h4.5v1.9h0.1c1.1-1.5,2.5-2.3,4.2-2.3c1.9,0.1,2.9,1.1,3,3.2v11.5h-4.5V15
		c0-0.8-0.4-1.3-1.2-1.3c-0.5,0-0.9,0.2-1.3,0.6l-0.3,0.3v10.6h-4.5V10.8z"/>
	<path fill="#464646" d="M257.1,17.9c0-2.2,0.5-4,1.6-5.4c1.1-1.4,2.7-2.1,4.8-2.1c2.1,0,3.8,0.7,4.8,2.1c1,1.4,1.6,3.2,1.6,5.4
		c0,2.3-0.5,4.1-1.6,5.4c-1,1.4-2.7,2.1-4.8,2.2c-2.2,0-3.8-0.7-4.8-2.2C257.7,22,257.1,20.2,257.1,17.9z M261.8,17.9
		c0,1.8,0.1,3,0.4,3.7c0.3,0.7,0.7,1,1.3,1c0.3,0,0.6-0.1,0.8-0.3c0.2-0.1,0.4-0.4,0.5-0.7c0.3-0.7,0.4-1.9,0.4-3.7
		c0-1.6-0.1-2.8-0.3-3.6c-0.3-0.7-0.7-1-1.4-1c-0.7,0-1.1,0.3-1.4,1C261.9,15.1,261.8,16.3,261.8,17.9z"/>
	<path fill="#464646" d="M271.5,4.7h4.5v4.1h-4.5V4.7z M271.5,10.8h4.5v14.4h-4.5V10.8z"/>
	<path fill="#464646" d="M285.5,15.2c-0.2-0.5-0.5-0.9-0.8-1.3c-0.4-0.4-0.8-0.6-1.4-0.6c-1,0-1.4,0.3-1.4,0.9
		c0,0.3,0.1,0.5,0.3,0.7c0.2,0.2,0.5,0.4,0.8,0.5c0.3,0.2,0.7,0.3,1.2,0.5c0.4,0.2,0.8,0.3,1.3,0.5c0.9,0.3,1.8,0.8,2.4,1.4
		c0.3,0.3,0.6,0.7,0.8,1.1c0.2,0.5,0.3,1,0.3,1.6c0,1.5-0.5,2.7-1.6,3.6c-1,0.9-2.4,1.3-4.1,1.3c-1.6,0-2.9-0.4-3.9-1.2
		c-0.5-0.4-0.9-0.8-1.3-1.3c-0.3-0.5-0.6-1-0.8-1.6l3.6-1.1c0.3,0.6,0.6,1,1,1.4c0.4,0.4,0.9,0.7,1.5,0.7c0.9,0,1.4-0.4,1.5-1.1
		c0-0.3-0.1-0.6-0.3-0.8c-0.2-0.2-0.5-0.4-0.8-0.5c-0.3-0.2-0.7-0.3-1.1-0.5c-0.4-0.1-0.9-0.3-1.3-0.5c-0.4-0.2-0.9-0.4-1.3-0.6
		c-0.4-0.2-0.8-0.5-1.2-0.8c-0.3-0.3-0.6-0.7-0.8-1.2c-0.2-0.5-0.3-1-0.3-1.6c0-0.4,0.1-0.9,0.3-1.4c0.2-0.5,0.5-1,0.9-1.5
		c0.5-0.5,1-0.9,1.7-1.2c0.7-0.3,1.6-0.5,2.6-0.5c1.2,0,2.3,0.3,3.3,0.9c1,0.6,1.7,1.6,2.2,3L285.5,15.2z"/>
	<path fill="#464646" d="M294,19c0,0.7,0.1,1.4,0.4,2.2c0.3,0.8,0.8,1.3,1.7,1.3c0.6,0,1.1-0.2,1.5-0.6c0.4-0.4,0.7-0.8,0.8-1.4
		l3.1,1.1c0,0.1-0.1,0.4-0.4,0.9c-0.2,0.4-0.5,0.8-1,1.3c-0.5,0.5-1,0.9-1.7,1.2c-0.7,0.3-1.6,0.5-2.6,0.5c-2.2,0-3.8-0.8-4.8-2.3
		c-1-1.5-1.6-3.2-1.6-5.3c0-2.1,0.5-3.9,1.6-5.3c1.1-1.4,2.6-2.2,4.7-2.2c2.2,0,3.8,0.8,4.7,2.4c0.9,1.5,1.3,3.3,1.3,5.2v1H294z
		 M297.7,16.2c0-0.7-0.1-1.4-0.3-2c-0.2-0.6-0.8-0.9-1.6-0.9c-0.7,0-1.1,0.3-1.4,0.9c-0.3,0.6-0.4,1.3-0.4,2H297.7z"/>
	<path fill="#464646" d="M128.8,37.8h4.5V40h0.1c0.3-0.9,0.9-1.6,1.7-2c0.8-0.4,1.7-0.6,2.6-0.6v4.7c-0.6-0.2-1.2-0.4-1.9-0.4
		c-0.7,0-1.3,0.1-1.6,0.3c-0.4,0.2-0.7,0.5-0.9,0.9v9.3h-4.5V37.8z"/>
	<path fill="#464646" d="M142.5,46c0,0.7,0.1,1.4,0.4,2.2c0.3,0.8,0.8,1.3,1.7,1.3c0.6,0,1.1-0.2,1.5-0.6c0.4-0.4,0.7-0.8,0.8-1.4
		l3.1,1.1c0,0.1-0.1,0.4-0.4,0.9c-0.2,0.4-0.5,0.8-1,1.3c-0.5,0.5-1,0.9-1.7,1.2c-0.7,0.3-1.6,0.5-2.6,0.5c-2.2,0-3.8-0.8-4.8-2.3
		c-1-1.5-1.6-3.2-1.6-5.3c0-2.1,0.5-3.9,1.6-5.3c1.1-1.4,2.6-2.2,4.7-2.2c2.2,0,3.8,0.8,4.7,2.4c0.9,1.5,1.3,3.2,1.3,5.2v1H142.5z
		 M146.2,43.3c0-0.7-0.1-1.4-0.3-2c-0.2-0.6-0.8-0.9-1.6-0.9c-0.7,0-1.1,0.3-1.4,0.9c-0.3,0.6-0.4,1.3-0.4,2H146.2z"/>
	<path fill="#464646" d="M164.5,40.2c-0.4-0.5-0.9-0.7-1.6-0.7c-0.4,0-0.6,0.1-0.7,0.3c0.5,0.7,0.7,1.5,0.7,2.4
		c0,0.7-0.2,1.3-0.5,1.8c-0.4,0.6-0.8,1-1.3,1.4c-1.1,0.7-2.4,1.1-3.7,1.1c-0.8,0-1.4-0.1-1.9-0.2c-0.1,0.1-0.2,0.2-0.2,0.4
		c-0.2,0.2-0.2,0.3-0.2,0.5c0,0.5,0.3,0.8,0.8,0.9c0.5,0.1,1.2,0.2,2,0.1c0.7,0,1.4,0,2.1,0.1c0.7,0.1,1.4,0.2,2,0.5
		c0.6,0.3,1.1,0.6,1.5,1.2c0.4,0.5,0.6,1.3,0.6,2.2c0,1.5-0.6,2.6-1.9,3.3c-1.3,0.7-2.9,1.1-5,1.1c-0.4,0-1,0-1.6-0.1
		c-0.7-0.1-1.4-0.2-2.2-0.4c-0.7-0.2-1.4-0.5-1.9-0.9c-0.5-0.4-0.8-0.9-0.8-1.6c0-0.8,0.3-1.4,0.9-1.8c0.5-0.4,1.1-0.6,1.8-0.7V51
		c-0.6-0.2-1-0.5-1.4-0.8c-0.4-0.4-0.6-0.9-0.6-1.5c0-0.4,0.1-0.7,0.3-1c0.2-0.3,0.4-0.6,0.7-0.8c0.6-0.5,1.2-0.8,1.8-0.9v-0.1
		c-1.8-0.8-2.7-2.1-2.7-3.8c0-0.8,0.2-1.5,0.6-2.1c0.4-0.6,0.9-1,1.5-1.4c1.2-0.7,2.5-1,3.7-1c1.4,0,2.7,0.3,3.9,1
		c0.2-0.4,0.7-0.9,1.4-1.3c0.7-0.4,1.4-0.6,2.1-0.6V40.2z M157.1,51.5c-0.4,0-1,0-1.7,0.1c-0.3,0.1-0.6,0.2-0.9,0.4
		c-0.3,0.2-0.4,0.5-0.4,0.8c0,0.3,0.1,0.5,0.4,0.7c0.2,0.2,0.5,0.3,0.8,0.4c0.7,0.1,1.3,0.2,1.8,0.2c0.6,0,1.2-0.1,1.9-0.2
		c0.7-0.1,1.1-0.5,1.1-1.1c0-0.3-0.1-0.6-0.4-0.8c-0.2-0.2-0.5-0.3-0.9-0.4C158.2,51.6,157.6,51.5,157.1,51.5L157.1,51.5z
		 M157.2,39.5c-0.6,0-1.1,0.3-1.3,0.8c-0.2,0.6-0.3,1.1-0.3,1.7c0,0.6,0.1,1.1,0.4,1.5c0.2,0.5,0.6,0.8,1.2,0.8
		c0.7,0,1.1-0.3,1.4-0.8c0.2-0.5,0.3-1.1,0.3-1.7c0-0.6-0.1-1.2-0.4-1.7C158.3,39.8,157.9,39.5,157.2,39.5z"/>
	<path fill="#464646" d="M165.5,31.8h4.5v4.1h-4.5V31.8z M165.5,37.8h4.5v14.4h-4.5V37.8z"/>
	<path fill="#464646" d="M179.5,42.2c-0.2-0.5-0.5-0.9-0.8-1.3c-0.4-0.4-0.8-0.6-1.4-0.6c-1,0-1.4,0.3-1.4,0.9
		c0,0.3,0.1,0.5,0.3,0.7c0.2,0.2,0.5,0.4,0.8,0.5c0.3,0.2,0.7,0.3,1.2,0.5c0.4,0.2,0.8,0.3,1.3,0.5c0.9,0.3,1.8,0.8,2.4,1.4
		c0.3,0.3,0.6,0.7,0.8,1.1c0.2,0.5,0.3,1,0.3,1.6c0,1.6-0.5,2.7-1.6,3.6c-1,0.9-2.4,1.3-4.1,1.3c-1.6,0-2.9-0.4-3.9-1.2
		c-0.5-0.4-0.9-0.8-1.3-1.3c-0.3-0.5-0.6-1-0.8-1.6l3.6-1.1c0.3,0.6,0.6,1,1,1.4c0.4,0.4,0.9,0.7,1.5,0.7c0.9,0,1.4-0.4,1.5-1.1
		c0-0.3-0.1-0.6-0.3-0.8c-0.2-0.2-0.5-0.4-0.8-0.5c-0.3-0.2-0.7-0.3-1.1-0.4c-0.4-0.1-0.9-0.3-1.3-0.5c-0.4-0.2-0.9-0.4-1.3-0.6
		c-0.4-0.2-0.8-0.5-1.2-0.8c-0.3-0.3-0.6-0.7-0.8-1.2c-0.2-0.5-0.3-1-0.3-1.6c0-0.4,0.1-0.9,0.3-1.4c0.2-0.5,0.5-1,0.9-1.5
		c0.5-0.5,1-0.9,1.7-1.2c0.7-0.3,1.6-0.5,2.6-0.5c1.2,0,2.3,0.3,3.3,0.9c1,0.6,1.7,1.6,2.2,3L179.5,42.2z"/>
	<path fill="#464646" d="M184.7,41.1h-1.8v-3.3h1.8v-5.2h4.5v5.2h2.5v3.3h-2.5v6.1c0,0.5,0,0.9,0.2,1.2c0.1,0.3,0.6,0.5,1.2,0.5
		c0.4,0,0.7-0.1,1-0.2v3.4c-1,0.3-2.1,0.4-3.2,0.4c-2.5,0-3.8-1.2-3.8-3.7V41.1z"/>
	<path fill="#464646" d="M196.9,46c0,0.7,0.1,1.4,0.4,2.2c0.3,0.8,0.8,1.3,1.7,1.3c0.6,0,1.1-0.2,1.5-0.6c0.4-0.4,0.7-0.8,0.8-1.4
		l3.1,1.1c0,0.1-0.1,0.4-0.4,0.9c-0.2,0.4-0.5,0.8-1,1.3c-0.5,0.5-1,0.9-1.7,1.2c-0.7,0.3-1.6,0.5-2.6,0.5c-2.2,0-3.8-0.8-4.8-2.3
		c-1-1.5-1.6-3.2-1.6-5.3c0-2.1,0.5-3.9,1.6-5.3c1.1-1.4,2.6-2.2,4.7-2.2c2.2,0,3.8,0.8,4.7,2.4c0.9,1.5,1.3,3.2,1.3,5.2v1H196.9z
		 M200.5,43.3c0-0.7-0.1-1.4-0.3-2c-0.2-0.6-0.8-0.9-1.6-0.9c-0.7,0-1.1,0.3-1.4,0.9c-0.3,0.6-0.4,1.3-0.4,2H200.5z"/>
	<path fill="#464646" d="M206.2,37.8h4.5V40h0.1c0.3-0.9,0.9-1.6,1.7-2c0.8-0.4,1.7-0.6,2.6-0.6v4.7c-0.6-0.2-1.2-0.4-1.9-0.4
		c-0.7,0-1.3,0.1-1.6,0.3c-0.4,0.2-0.7,0.5-0.9,0.9v9.3h-4.5V37.8z"/>
	<path fill="#464646" d="M223.6,31.8h4.5v4.1h-4.5V31.8z M223.6,37.8h4.5v14.4h-4.5V37.8z"/>
	<path fill="#464646" d="M230.2,37.8h4.5v1.9h0.1c1.1-1.5,2.5-2.3,4.2-2.3c1.9,0.1,2.9,1.1,3,3.3v11.5h-4.5V42
		c0-0.8-0.4-1.3-1.2-1.3c-0.5,0-0.9,0.2-1.3,0.6l-0.3,0.3v10.5h-4.5V37.8z"/>
	<path fill="#464646" d="M252.5,41.1h-1.8v-3.3h1.8v-5.2h4.5v5.2h2.5v3.3H257v6.1c0,0.5,0,0.9,0.2,1.2c0.1,0.3,0.6,0.5,1.2,0.5
		c0.4,0,0.7-0.1,1-0.2v3.4c-1,0.3-2.1,0.4-3.2,0.4c-2.5,0-3.8-1.2-3.8-3.7V41.1z"/>
	<path fill="#464646" d="M261,31.8h4.5v7.9h0.1c1.1-1.5,2.5-2.3,4.2-2.3c1.9,0.1,2.9,1.1,3,3.2v11.5h-4.5V42c0-0.8-0.4-1.3-1.2-1.3
		c-0.5,0-0.9,0.2-1.3,0.6l-0.3,0.3v10.6H261V31.8z"/>
	<path fill="#464646" d="M278.9,46c0,0.7,0.1,1.4,0.4,2.2c0.3,0.8,0.9,1.3,1.7,1.3c0.6,0,1.1-0.2,1.5-0.6c0.4-0.4,0.7-0.8,0.8-1.4
		l3.1,1.1c0,0.1-0.1,0.4-0.4,0.9c-0.2,0.4-0.5,0.8-1,1.3c-0.5,0.5-1,0.9-1.7,1.2c-0.7,0.3-1.6,0.5-2.6,0.5c-2.2,0-3.8-0.8-4.8-2.3
		c-1-1.5-1.6-3.2-1.6-5.3c0-2.1,0.5-3.9,1.6-5.3c1.1-1.4,2.6-2.2,4.7-2.2c2.2,0,3.8,0.8,4.7,2.4c0.9,1.5,1.3,3.2,1.3,5.2v1H278.9z
		 M282.5,43.3c0-0.7-0.1-1.4-0.3-2c-0.2-0.6-0.8-0.9-1.6-0.9c-0.7,0-1.1,0.3-1.4,0.9c-0.3,0.6-0.4,1.3-0.4,2H282.5z"/>
</g>
<path fill="#5B9ACB" d="M129,58.8h7l2.1,11.4h0.1l2.5-11.4h6.8v20.4h-5V64.2h-0.1l-3.4,15.1h-3l-3.1-15.6h-0.1v15.6H129V58.8z"/>
<path fill="#5B9ACB" d="M154.2,73.1c0,0.7,0.1,1.4,0.4,2.2c0.3,0.8,0.9,1.3,1.7,1.3c0.6,0,1.1-0.2,1.5-0.6c0.4-0.4,0.7-0.8,0.8-1.4
	l3.1,1.1c0,0.1-0.1,0.4-0.4,0.9c-0.2,0.4-0.5,0.8-1,1.3c-0.5,0.5-1,0.9-1.7,1.2c-0.7,0.3-1.6,0.5-2.6,0.5c-2.2,0-3.8-0.8-4.8-2.3
	c-1-1.5-1.6-3.2-1.6-5.3c0-2.1,0.5-3.9,1.6-5.3c1.1-1.4,2.6-2.2,4.7-2.2c2.2,0,3.8,0.8,4.7,2.4c0.9,1.5,1.3,3.2,1.3,5.2v1H154.2z
	 M157.8,70.4c0-0.7-0.1-1.4-0.3-2c-0.2-0.6-0.8-0.9-1.6-0.9c-0.7,0-1.1,0.3-1.4,0.9c-0.3,0.6-0.4,1.3-0.4,2H157.8z"/>
<path fill="#5B9ACB" d="M175.1,79.3h-4.3v-1.4h-0.1c-0.6,0.6-1.2,1-1.7,1.3c-0.5,0.2-1.1,0.3-1.8,0.3c-1.5,0-2.6-0.7-3.3-2.1
	c-0.7-1.3-1.1-2.9-1.1-4.8c0-2.1,0.3-4,1-5.5c0.7-1.5,1.9-2.3,3.6-2.3c0.7,0,1.3,0.1,1.8,0.3c0.5,0.2,1,0.6,1.4,1v-7.3h4.5V79.3z
	 M170.6,68.1c-0.3-0.4-0.8-0.6-1.6-0.7c-0.4,0-0.7,0.1-0.9,0.4c-0.2,0.3-0.4,0.7-0.5,1.1c-0.2,1-0.2,1.9-0.2,2.8
	c0,1.5,0.1,2.7,0.2,3.5c0.2,0.9,0.5,1.3,1.2,1.3c0.4,0,0.7-0.1,1.1-0.3c0.3-0.2,0.5-0.5,0.7-0.8V68.1z"/>
<path fill="#5B9ACB" d="M177.7,58.8h4.5V63h-4.5V58.8z M177.7,64.9h4.5v14.4h-4.5V64.9z"/>
<path fill="#5B9ACB" d="M184.9,68.1H183v-3.2h1.8v-5.2h4.5v5.2h2.5v3.2h-2.5v6.1c0,0.5,0,0.9,0.2,1.2c0.1,0.3,0.6,0.5,1.2,0.5
	c0.4,0,0.7-0.1,1-0.2v3.4c-1,0.3-2.1,0.4-3.2,0.4c-2.5,0-3.8-1.2-3.8-3.7V68.1z"/>
<path fill="#5B9ACB" d="M197.1,73.1c0,0.7,0.1,1.4,0.4,2.2c0.3,0.8,0.9,1.3,1.7,1.3c0.6,0,1.1-0.2,1.5-0.6c0.4-0.4,0.7-0.8,0.8-1.4
	l3.1,1.1c0,0.1-0.1,0.4-0.4,0.9c-0.2,0.4-0.5,0.8-1,1.3c-0.5,0.5-1,0.9-1.7,1.2c-0.7,0.3-1.6,0.5-2.6,0.5c-2.2,0-3.8-0.8-4.8-2.3
	c-1-1.5-1.6-3.2-1.6-5.3c0-2.1,0.5-3.9,1.6-5.3c1.1-1.4,2.6-2.2,4.7-2.2c2.2,0,3.8,0.8,4.7,2.4c0.9,1.5,1.3,3.2,1.3,5.2v1H197.1z
	 M200.7,70.4c0-0.7-0.1-1.4-0.3-2c-0.2-0.6-0.8-0.9-1.6-0.9c-0.7,0-1.1,0.3-1.4,0.9c-0.3,0.6-0.4,1.3-0.4,2H200.7z"/>
<path fill="#5B9ACB" d="M206.4,64.9h4.5v2.2h0.1c0.3-0.9,0.9-1.6,1.7-2c0.8-0.4,1.7-0.6,2.6-0.6v4.7c-0.6-0.2-1.2-0.4-1.9-0.4
	c-0.7,0-1.3,0.1-1.6,0.3c-0.4,0.2-0.7,0.5-0.9,0.9v9.3h-4.5V64.9z"/>
<path fill="#5B9ACB" d="M216.3,64.9h4.5v2.2h0.1c0.3-0.9,0.9-1.6,1.7-2c0.8-0.4,1.7-0.6,2.6-0.6v4.7c-0.6-0.2-1.2-0.4-1.9-0.4
	c-0.7,0-1.3,0.1-1.6,0.3c-0.4,0.2-0.7,0.5-0.9,0.9v9.3h-4.5V64.9z"/>
<path fill="#5B9ACB" d="M233,69.1c0-0.5-0.1-0.9-0.3-1.2c-0.2-0.3-0.5-0.5-1-0.5c-0.5,0-0.9,0.2-1.1,0.6c-0.2,0.4-0.4,0.8-0.4,1.3
	l-4.1-0.8c0.3-1.4,1-2.5,2.1-3.1c1.1-0.6,2.3-0.9,3.6-0.9c1.5,0,2.7,0.3,3.9,1c1.1,0.7,1.7,1.8,1.8,3.4v8c0,0.8,0.1,1.3,0.2,1.7
	c0.1,0.3,0.2,0.6,0.3,0.7h-4.8c-0.1-0.4-0.1-0.9-0.2-1.3c-0.4,0.5-0.9,0.9-1.5,1.2c-0.6,0.3-1.3,0.5-2,0.5c-2.6,0-3.9-1.5-4-4.4
	c0-1,0.2-1.8,0.7-2.4c0.5-0.7,1.1-1.2,1.8-1.5c1.6-0.7,3.2-1.1,4.9-1.1V69.1z M233,72.4c-0.9,0.1-1.7,0.2-2.2,0.5
	c-0.6,0.3-0.8,1-0.8,2.1c0,1,0.5,1.5,1.4,1.5c0.4,0,1-0.3,1.6-0.9V72.4z"/>
<path fill="#5B9ACB" d="M239.7,64.9h4.5v1.9h0.1c1.1-1.5,2.5-2.2,4.2-2.3c1.9,0.1,2.9,1.1,3,3.3v11.5H247V69.1
	c0-0.8-0.4-1.3-1.2-1.3c-0.5,0-0.9,0.2-1.3,0.6l-0.3,0.3v10.6h-4.5V64.9z"/>
<path fill="#5B9ACB" d="M257.8,73.1c0,0.7,0.1,1.4,0.4,2.2c0.3,0.8,0.8,1.3,1.7,1.3c0.6,0,1.1-0.2,1.5-0.6c0.4-0.4,0.7-0.8,0.8-1.4
	l3.1,1.1c0,0.1-0.1,0.4-0.4,0.9c-0.2,0.4-0.5,0.8-1,1.3c-0.5,0.5-1,0.9-1.7,1.2c-0.7,0.3-1.6,0.5-2.6,0.5c-2.2,0-3.8-0.8-4.8-2.3
	c-1-1.5-1.6-3.2-1.6-5.3c0-2.1,0.5-3.9,1.6-5.3c1.1-1.4,2.6-2.2,4.7-2.2c2.2,0,3.8,0.8,4.7,2.4c0.9,1.5,1.3,3.2,1.3,5.2v1H257.8z
	 M261.5,70.4c0-0.7-0.1-1.4-0.3-2c-0.2-0.6-0.8-0.9-1.6-0.9c-0.7,0-1.1,0.3-1.4,0.9c-0.3,0.6-0.4,1.3-0.4,2H261.5z"/>
<path fill="#5B9ACB" d="M274,69.1c0-0.5-0.1-0.9-0.3-1.2c-0.2-0.3-0.5-0.5-1-0.5c-0.5,0-0.9,0.2-1.1,0.6c-0.2,0.4-0.4,0.8-0.4,1.3
	l-4.1-0.8c0.3-1.4,1-2.5,2.1-3.1c1.1-0.6,2.3-0.9,3.6-0.9c1.5,0,2.7,0.3,3.9,1c1.1,0.7,1.7,1.8,1.8,3.4v8c0,0.8,0.1,1.3,0.2,1.7
	c0.1,0.3,0.2,0.6,0.3,0.7h-4.8c-0.1-0.4-0.1-0.9-0.2-1.3c-0.4,0.5-0.9,0.9-1.5,1.2c-0.6,0.3-1.3,0.5-2,0.5c-2.6,0-3.9-1.5-4-4.4
	c0-1,0.2-1.8,0.7-2.4c0.5-0.7,1.1-1.2,1.8-1.5c1.6-0.7,3.2-1.1,4.9-1.1V69.1z M274,72.4c-0.9,0.1-1.7,0.2-2.2,0.5
	c-0.6,0.3-0.8,1-0.8,2.1c0,1,0.5,1.5,1.4,1.5c0.4,0,1-0.3,1.6-0.9V72.4z"/>
<path fill="#5B9ACB" d="M280.7,64.9h4.5v1.9h0.1c1.1-1.5,2.5-2.2,4.2-2.3c1.9,0.1,2.9,1.1,3,3.3v11.5h-4.5V69.1
	c0-0.8-0.4-1.3-1.2-1.3c-0.5,0-0.9,0.2-1.3,0.6l-0.3,0.3v10.6h-4.5V64.9z"/>
<path fill="#5B9ACB" d="M131.6,99.8c0.2,0.4,0.4,0.8,0.6,1.2c0.2,0.4,0.4,0.7,0.7,1c0.3,0.2,0.6,0.4,1,0.6c0.3,0.1,0.8,0.2,1.3,0.2
	c0.6,0,1.2-0.2,1.5-0.5c0.4-0.3,0.6-0.7,0.6-1.2c0-0.5-0.1-1-0.3-1.3c-0.3-0.3-0.6-0.6-1-0.9c-0.4-0.3-0.9-0.5-1.5-0.7
	c-0.6-0.2-1.1-0.4-1.7-0.6c-1.2-0.4-2.2-1.1-3.1-2c-0.4-0.5-0.8-1.1-1-1.8c-0.3-0.7-0.4-1.5-0.4-2.5c0-1.6,0.7-3,2-4.1
	c1.3-1.1,2.8-1.7,4.5-1.7c1.7,0,3.2,0.4,4.4,1.3c1.2,0.8,2,1.9,2.4,3.2l-4.1,1.7c-0.3-0.6-0.6-1.2-1-1.6c-0.4-0.4-1-0.6-1.8-0.7
	c-0.4,0-0.8,0.1-1.2,0.4c-0.4,0.3-0.6,0.7-0.6,1.3c0,0.3,0.1,0.6,0.4,0.9c0.3,0.3,0.6,0.5,1.1,0.7c0.4,0.2,0.9,0.4,1.5,0.6
	c0.5,0.2,1.1,0.5,1.7,0.7c1.2,0.5,2.3,1.1,3.1,2c0.4,0.4,0.8,0.9,1.1,1.6c0.3,0.6,0.4,1.3,0.4,2.1c0,2.1-0.8,3.8-2.2,5
	c-1.4,1.2-3.1,1.9-5.2,1.9c-3.6,0-6-1.8-7.4-5.2L131.6,99.8z"/>
<path fill="#5B9ACB" d="M147.3,100.1c0,0.7,0.1,1.4,0.4,2.2c0.3,0.8,0.9,1.3,1.7,1.3c0.6,0,1.1-0.2,1.5-0.6c0.4-0.4,0.7-0.8,0.8-1.4
	l3.1,1.1c0,0.1-0.1,0.4-0.4,0.9c-0.2,0.4-0.5,0.8-1,1.3c-0.5,0.5-1,0.9-1.7,1.2c-0.7,0.3-1.6,0.5-2.6,0.5c-2.2,0-3.8-0.8-4.8-2.3
	c-1-1.5-1.6-3.2-1.6-5.3c0-2.1,0.5-3.9,1.6-5.3c1.1-1.4,2.6-2.2,4.7-2.2c2.2,0,3.8,0.8,4.7,2.4c0.9,1.5,1.3,3.2,1.3,5.2v1H147.3z
	 M151,97.4c0-0.7-0.1-1.4-0.3-2c-0.2-0.6-0.8-0.9-1.6-0.9c-0.7,0-1.1,0.3-1.4,0.9c-0.3,0.6-0.4,1.3-0.4,2H151z"/>
<path fill="#5B9ACB" d="M163.4,96.2c0-0.5-0.1-0.8-0.3-1.2c-0.2-0.3-0.5-0.5-1-0.5c-0.5,0-0.9,0.2-1.1,0.6c-0.2,0.4-0.4,0.8-0.4,1.3
	l-4.1-0.8c0.3-1.4,1-2.5,2.1-3.1c1.1-0.6,2.3-0.9,3.6-0.9c1.5,0,2.7,0.3,3.9,1c1.1,0.7,1.7,1.8,1.8,3.4v8c0,0.8,0.1,1.3,0.2,1.7
	c0.1,0.3,0.2,0.6,0.3,0.7h-4.8c-0.1-0.4-0.1-0.9-0.2-1.3c-0.4,0.5-0.9,0.9-1.5,1.2c-0.6,0.3-1.3,0.5-2,0.5c-2.6,0-3.9-1.5-4-4.4
	c0-1,0.2-1.8,0.7-2.4c0.5-0.7,1.1-1.2,1.8-1.5c1.6-0.7,3.2-1.1,4.9-1.1V96.2z M163.4,99.4c-0.9,0.1-1.7,0.2-2.2,0.5
	c-0.6,0.3-0.8,1-0.8,2.1c0,1,0.5,1.5,1.4,1.5c0.4,0,1-0.3,1.6-0.9V99.4z"/>
<path fill="#5B9ACB" d="M177.9,85.9h7.7c2,0,3.6,0.5,4.9,1.4c1.3,0.9,1.9,2.4,1.9,4.4c0,1.1-0.3,2-0.9,2.8c-0.6,0.8-1.4,1.5-2.5,1.9
	l3.4,9.9h-5.1l-2.6-8.8H183v8.8h-5.2V85.9z M183,94.2h1c1,0,1.8-0.2,2.4-0.5c0.6-0.3,0.9-0.9,0.9-1.7c0-1-0.4-1.7-1-2
	c-0.7-0.3-1.5-0.4-2.4-0.4H183V94.2z"/>
<path fill="#5B9ACB" d="M197.4,100.1c0,0.7,0.1,1.4,0.4,2.2c0.3,0.8,0.8,1.3,1.7,1.3c0.6,0,1.1-0.2,1.5-0.6c0.4-0.4,0.7-0.8,0.8-1.4
	l3.1,1.1c0,0.1-0.1,0.4-0.4,0.9c-0.2,0.4-0.5,0.8-1,1.3c-0.5,0.5-1,0.9-1.7,1.2c-0.7,0.3-1.6,0.5-2.6,0.5c-2.2,0-3.8-0.8-4.8-2.3
	c-1-1.5-1.6-3.2-1.6-5.3c0-2.1,0.5-3.9,1.6-5.3c1.1-1.4,2.6-2.2,4.7-2.2c2.2,0,3.8,0.8,4.7,2.4c0.9,1.5,1.3,3.2,1.3,5.2v1H197.4z
	 M201,97.4c0-0.7-0.1-1.4-0.3-2c-0.2-0.6-0.8-0.9-1.6-0.9c-0.7,0-1.1,0.3-1.4,0.9c-0.3,0.6-0.4,1.3-0.4,2H201z"/>
<path fill="#5B9ACB" d="M219.3,94.4c-0.4-0.5-0.9-0.7-1.6-0.7c-0.4,0-0.6,0.1-0.7,0.3c0.5,0.7,0.7,1.5,0.7,2.4
	c0,0.7-0.2,1.3-0.5,1.8c-0.4,0.6-0.8,1-1.3,1.4c-1.1,0.7-2.4,1.1-3.7,1.1c-0.8,0-1.4-0.1-1.9-0.2c-0.1,0.1-0.2,0.2-0.2,0.4
	c-0.2,0.2-0.2,0.3-0.2,0.5c0,0.5,0.3,0.8,0.8,0.9c0.5,0.1,1.2,0.2,2,0.1c0.7,0,1.4,0,2.1,0.1c0.7,0.1,1.4,0.2,2,0.5
	c0.6,0.3,1.1,0.6,1.5,1.2c0.4,0.5,0.6,1.3,0.6,2.2c0,1.5-0.6,2.6-1.9,3.3c-1.3,0.7-2.9,1.1-5,1.1c-0.4,0-1,0-1.6-0.1
	c-0.7-0.1-1.4-0.2-2.2-0.4c-0.7-0.2-1.4-0.5-1.9-0.9c-0.5-0.4-0.8-0.9-0.8-1.6c0-0.8,0.3-1.4,0.9-1.8c0.5-0.4,1.1-0.6,1.8-0.7v-0.1
	c-0.6-0.2-1-0.5-1.4-0.8c-0.4-0.4-0.6-0.9-0.6-1.5c0-0.4,0.1-0.7,0.3-1c0.2-0.3,0.4-0.6,0.7-0.8c0.6-0.5,1.2-0.8,1.8-0.9v-0.1
	c-1.8-0.8-2.7-2.1-2.7-3.8c0-0.8,0.2-1.5,0.6-2.1c0.4-0.6,0.9-1,1.5-1.4c1.2-0.7,2.5-1,3.7-1c1.4,0,2.7,0.3,3.9,1
	c0.2-0.4,0.7-0.9,1.4-1.3c0.7-0.4,1.4-0.6,2.1-0.6V94.4z M211.9,105.6c-0.4,0-1,0-1.7,0.1c-0.3,0.1-0.6,0.2-0.9,0.4
	c-0.3,0.2-0.4,0.5-0.4,0.8c0,0.3,0.1,0.5,0.4,0.7c0.2,0.2,0.5,0.3,0.8,0.4c0.7,0.1,1.3,0.2,1.8,0.2c0.6,0,1.2-0.1,1.9-0.2
	c0.7-0.1,1.1-0.5,1.1-1.1c0-0.3-0.1-0.6-0.4-0.8c-0.2-0.2-0.5-0.3-0.9-0.4C213,105.7,212.4,105.6,211.9,105.6L211.9,105.6z
	 M212.1,93.6c-0.6,0-1.1,0.3-1.3,0.8c-0.2,0.6-0.3,1.1-0.3,1.7c0,0.6,0.1,1.1,0.4,1.5c0.2,0.5,0.6,0.8,1.3,0.8
	c0.7,0,1.1-0.3,1.4-0.8c0.2-0.5,0.3-1.1,0.3-1.7c0-0.6-0.1-1.2-0.4-1.7C213.1,93.9,212.7,93.6,212.1,93.6z"/>
<path fill="#5B9ACB" d="M220.3,85.9h4.5V90h-4.5V85.9z M220.3,91.9h4.5v14.4h-4.5V91.9z"/>
<path fill="#5B9ACB" d="M226.3,99.1c0-2.2,0.5-4,1.6-5.4c1.1-1.4,2.7-2.1,4.8-2.1c2.2,0,3.8,0.7,4.8,2.1c1,1.4,1.5,3.2,1.5,5.4
	c0,2.3-0.5,4.1-1.5,5.5c-1,1.4-2.7,2.1-4.8,2.2c-2.2,0-3.8-0.7-4.8-2.2C226.9,103.2,226.3,101.4,226.3,99.1z M231,99.1
	c0,1.8,0.1,3,0.4,3.7c0.3,0.7,0.7,1,1.3,1c0.3,0,0.6-0.1,0.8-0.3c0.2-0.1,0.4-0.4,0.5-0.7c0.3-0.7,0.4-1.9,0.4-3.7
	c0-1.6-0.1-2.8-0.3-3.6c-0.3-0.7-0.7-1-1.4-1c-0.7,0-1.1,0.3-1.4,1C231.1,96.2,231,97.4,231,99.1z"/>
<path fill="#5B9ACB" d="M240.6,91.9h4.5v1.9h0.1c1.1-1.5,2.5-2.3,4.2-2.3c1.9,0.1,2.9,1.1,3,3.3v11.5h-4.5V96.1
	c0-0.8-0.4-1.3-1.2-1.3c-0.5,0-0.9,0.2-1.3,0.6l-0.3,0.3v10.6h-4.5V91.9z"/>
<path fill="#5B9ACB" d="M255.1,101.3h4.8v5h-4.8V101.3z"/>
<g>
	<path fill="#F5F5F5" d="M16.2,60.3L16.2,60.3c-1.2,0-2.2-1-2.2-2.2v-5.2c0-1.2,1-2.2,2.2-2.2l0,0c1.2,0,2.2,1,2.2,2.2v5.2
		C18.4,59.3,17.4,60.3,16.2,60.3z"/>
	<path fill="#F5F5F5" d="M97.3,60.3L97.3,60.3c-1.2,0-2.2-1-2.2-2.2v-5.2c0-1.2,1-2.2,2.2-2.2l0,0c1.2,0,2.2,1,2.2,2.2v5.2
		C99.5,59.3,98.5,60.3,97.3,60.3z"/>
	<path fill="#F5F5F5" d="M24.4,64.6L24.4,64.6c-1.2,0-2.2-1-2.2-2.2V48.6c0-1.2,1-2.2,2.2-2.2l0,0c1.2,0,2.2,1,2.2,2.2v13.9
		C26.5,63.7,25.6,64.6,24.4,64.6z"/>
	<path fill="#F5F5F5" d="M32.6,69.5L32.6,69.5c-1.2,0-2.2-1-2.2-2.2V43.8c0-1.2,1-2.2,2.2-2.2l0,0c1.2,0,2.2,1,2.2,2.2v23.5
		C34.7,68.5,33.7,69.5,32.6,69.5z"/>
	<path fill="#F5F5F5" d="M40.7,62.1L40.7,62.1c-1.2,0-2.2-1-2.2-2.2v-8.7c0-1.2,1-2.2,2.2-2.2l0,0c1.2,0,2.2,1,2.2,2.2v8.7
		C42.9,61.1,41.9,62.1,40.7,62.1z"/>
	<path fill="#F5F5F5" d="M48.9,58.7L48.9,58.7c-1.2,0-2.2-1-2.2-2.2v-2c0-1.2,1-2.2,2.2-2.2l0,0c1.2,0,2.2,1,2.2,2.2v2
		C51.1,57.7,50.1,58.7,48.9,58.7z"/>
	<path fill="#F5F5F5" d="M89.5,58.7L89.5,58.7c-1.2,0-2.2-1-2.2-2.2v-2c0-1.2,1-2.2,2.2-2.2l0,0c1.2,0,2.2,1,2.2,2.2v2
		C91.7,57.7,90.7,58.7,89.5,58.7z"/>
	<path fill="#F5F5F5" d="M57.1,76.3L57.1,76.3c-1.2,0-2.2-1-2.2-2.2V37c0-1.2,1-2.2,2.2-2.2l0,0c1.2,0,2.2,1,2.2,2.2v37.1
		C59.3,75.3,58.3,76.3,57.1,76.3z"/>
	<path fill="#F5F5F5" d="M65.3,64.6L65.3,64.6c-1.2,0-2.2-1-2.2-2.2V48.6c0-1.2,1-2.2,2.2-2.2l0,0c1.2,0,2.2,1,2.2,2.2v13.9
		C67.4,63.7,66.5,64.6,65.3,64.6z"/>
	<path fill="#F5F5F5" d="M73.5,62.1L73.5,62.1c-1.2,0-2.2-1-2.2-2.2v-8.7c0-1.2,1-2.2,2.2-2.2l0,0c1.2,0,2.2,1,2.2,2.2v8.7
		C75.6,61.1,74.6,62.1,73.5,62.1z"/>
	<path fill="#F5F5F5" d="M81.6,67.2L81.6,67.2c-1.2,0-2.2-1-2.2-2.2V46c0-1.2,1-2.2,2.2-2.2l0,0c1.2,0,2.2,1,2.2,2.2v19.1
		C83.8,66.3,82.8,67.2,81.6,67.2z"/>
</g>
<g>
</g>
<g>
</g>
<g>
</g>
<g>
</g>
<g>
</g>
<g>
</g>
</svg>
