<?xml version="1.0" encoding="utf-8"?>
<!-- Generator: Adobe Illustrator 18.0.0, SVG Export Plug-In . SVG Version: 6.00 Build 0)  -->
<!DOCTYPE svg PUBLIC "-//W3C//DTD SVG 1.1//EN" "http://www.w3.org/Graphics/SVG/1.1/DTD/svg11.dtd">
<svg version="1.1" id="Capa_1" xmlns="http://www.w3.org/2000/svg" xmlns:xlink="http://www.w3.org/1999/xlink" x="0px" y="0px"
	 viewBox="0 0 205.4 39.9" enable-background="new 0 0 205.4 39.9" xml:space="preserve">
<g>
	<g>
		<path fill="#FFFFFF" d="M16.3,27L16.3,27c-1.3,2.1-3.7,3.8-7.2,3.8c-5.1,0-9.2-4.4-9.2-11C0,11.8,5.2,8.2,9.8,8.2
			c3.4,0,5.6,1.7,6.7,3.8h0.1l0.1-3.3h3.7c-0.1,1.8-0.1,3.7-0.1,6v24.6h-3.9V27z M16.3,17.5c0-0.5,0-1.2-0.2-1.7
			c-0.6-2.4-2.7-4.5-5.6-4.5c-4.1,0-6.5,3.4-6.5,8.3c0,4.3,2.1,8.1,6.4,8.1c2.6,0,4.7-1.6,5.6-4.3c0.2-0.5,0.3-1.3,0.3-1.9V17.5z"/>
		<path fill="#FFFFFF" d="M44.9,24.5c0,2.2,0,4.2,0.2,5.9h-3.5l-0.2-3.5h-0.1c-1,1.7-3.3,4-7.2,4c-3.4,0-7.5-1.9-7.5-9.5V8.7h3.9v12
			c0,4.1,1.3,6.9,4.8,6.9c2.6,0,4.5-1.8,5.2-3.6c0.2-0.6,0.4-1.3,0.4-2V8.7h3.9V24.5z"/>
		<path fill="#FFFFFF" d="M55.8,2.6c0,1.3-0.9,2.4-2.5,2.4c-1.4,0-2.4-1.1-2.4-2.4c0-1.4,1-2.5,2.5-2.5C54.9,0.2,55.8,1.3,55.8,2.6z
			 M51.4,30.4V8.7h3.9v21.7H51.4z"/>
		<path fill="#FFFFFF" d="M64.1,20.3c0.1,5.3,3.5,7.5,7.4,7.5c2.8,0,4.5-0.5,6-1.1l0.7,2.8c-1.4,0.6-3.8,1.3-7.2,1.3
			c-6.7,0-10.6-4.4-10.6-10.9c0-6.5,3.8-11.7,10.2-11.7c7.1,0,9,6.2,9,10.2c0,0.8-0.1,1.4-0.1,1.8H64.1z M75.6,17.5
			c0-2.5-1-6.4-5.5-6.4c-4,0-5.7,3.7-6,6.4H75.6z"/>
		<path fill="#FFFFFF" d="M89.1,2.5v6.2h5.6v3h-5.6v11.7c0,2.7,0.8,4.2,3,4.2c1,0,1.8-0.1,2.3-0.3l0.2,3c-0.8,0.3-2,0.5-3.5,0.5
			c-1.8,0-3.3-0.6-4.3-1.7c-1.1-1.2-1.5-3.1-1.5-5.6V11.7h-3.4v-3h3.4V3.5L89.1,2.5z"/>
		<path fill="#FFFFFF" d="M124.7,17.1c-0.2-4.2-0.5-9.3-0.4-13h-0.1c-1,3.5-2.3,7.3-3.8,11.5L115,30.2h-3l-4.9-14.4
			c-1.4-4.3-2.6-8.1-3.5-11.7h-0.1c-0.1,3.8-0.3,8.8-0.6,13.3l-0.8,12.9h-3.7l2.1-30.2h5l5.1,14.6c1.3,3.7,2.3,7,3,10.2h0.1
			c0.8-3,1.8-6.4,3.2-10.2l5.4-14.6h5l1.9,30.2h-3.8L124.7,17.1z"/>
		<path fill="#FFFFFF" d="M150.9,16.2h-11.7v10.9h13.1v3.3h-17V0.2h16.3v3.3h-12.4V13h11.7V16.2z"/>
		<path fill="#FFFFFF" d="M157.3,0.6c2.4-0.4,5.2-0.6,8.3-0.6c5.6,0,9.6,1.3,12.2,3.8c2.7,2.5,4.3,6,4.3,10.8c0,4.9-1.5,9-4.3,11.7
			c-2.8,2.8-7.5,4.3-13.3,4.3c-2.8,0-5.1-0.1-7.1-0.4V0.6z M161.2,27.3c1,0.2,2.4,0.2,3.9,0.2c8.3,0,12.8-4.7,12.8-12.8
			c0-7.1-4-11.6-12.2-11.6c-2,0-3.5,0.2-4.6,0.4V27.3z"/>
	</g>
	<g>
		<path fill="#FFFFFF" d="M72.7,35.6c0,0,8.8-3.3,16-5.1c2.7-0.6,6.3-1.1,9.8-1.4c4-0.3,6.1-0.4,8.1-0.5c0,0,4.6,0,8.7,0.6
			c4.7,0.7,11.5,1.1,17.6,2c8.8,0.9,8.8,1,13.2,1.6c0,0,8.3,0.3,10.8,0.2c0,0,2.4,0.1,11.5-1.2c3-0.4,6-1.3,10.5-2.1
			c0,0,6.4-1.8,7.1-2l9.1-3.3l10.3-4.1c0,0-5.2,3.8-9.2,6.4c0,0-4.9,3.2-7.6,4.2c0,0-4.2,2.5-11.1,4.6c-4.1,1.2-9.5,2.9-10.2,3
			c-8.2,1.1-2.8,0.7-10.7,1.4c0,0-9.1,0.1-11.5-0.1c0,0-7.2-0.9-12.7-1.5c0,0-4.6-0.9-9.1-1.5c0,0-5.1-0.9-7.9-1.4
			c0,0-5.3-0.8-9.5-1.1c0,0-5-0.3-7.7-0.4c0,0-8-0.4-9.9-0.2c0,0-3.2-0.1-6,0.2C82.4,33.9,73.3,35.4,72.7,35.6z"/>
	</g>
</g>
<g>
</g>
<g>
</g>
<g>
</g>
<g>
</g>
<g>
</g>
<g>
</g>
</svg>
