<?xml version="1.0" encoding="utf-8"?>
<!-- Generator: Adobe Illustrator 18.0.0, SVG Export Plug-In . SVG Version: 6.00 Build 0)  -->
<!DOCTYPE svg PUBLIC "-//W3C//DTD SVG 1.1//EN" "http://www.w3.org/Graphics/SVG/1.1/DTD/svg11.dtd">
<svg version="1.1" id="Capa_1" xmlns="http://www.w3.org/2000/svg" xmlns:xlink="http://www.w3.org/1999/xlink" x="0px" y="0px"
	 viewBox="0 0 281.9 101.7" enable-background="new 0 0 281.9 101.7" xml:space="preserve">
<g>
	<path fill="#F5F5F5" d="M117.9,1.2h4.9v19.4h-4.9V1.2z"/>
	<path fill="#F5F5F5" d="M124.9,6.9h4.3v1.8h0c1-1.4,2.3-2.1,3.9-2.2c0.7,0,1.4,0.2,1.9,0.6c0.5,0.4,0.8,0.9,0.9,1.6h0.1
		c1-1.4,2.3-2.1,3.9-2.2c0.9,0,1.6,0.2,2.1,0.7c0.5,0.5,0.8,1.2,0.8,2.2v11.1h-4.3v-9.7c0-0.8-0.4-1.2-1.1-1.2
		c-0.5,0-0.9,0.2-1.2,0.6l-0.3,0.3v10h-4.3v-9.7c0-0.8-0.4-1.2-1.1-1.2c-0.5,0-0.9,0.2-1.2,0.6l-0.3,0.3v10h-4.3V6.9z"/>
	<path fill="#F5F5F5" d="M145.2,6.9h4.1v1.5h0.1c0.9-1.1,1.9-1.6,3-1.6c2.9,0.1,4.4,2.2,4.5,6.5c0,1.8-0.3,3.5-0.9,5
		c-0.7,1.6-1.9,2.4-3.7,2.4c-1.1,0-2-0.4-2.7-1.2v5.3h-4.3V6.9z M149.4,17.6c0.5,0.4,1,0.5,1.4,0.5c0.7,0,1.2-0.4,1.4-1.2
		c0.1-0.7,0.2-1.7,0.2-3c0-1.6,0-2.8-0.1-3.6c-0.2-0.8-0.5-1.2-1.2-1.2c-0.4,0-0.7,0.1-1,0.3c-0.3,0.2-0.5,0.5-0.6,0.8V17.6z"/>
	<path fill="#F5F5F5" d="M169.8,20.6h-4.3v-1.8l0,0c-1,1.4-2.3,2.1-3.9,2.1c-1.9-0.1-2.9-1.1-2.9-3.1V6.9h4.3v9.7
		c0,0.8,0.3,1.2,1.1,1.2c0.5,0,0.9-0.2,1.2-0.6l0.3-0.3v-10h4.3V20.6z"/>
	<path fill="#F5F5F5" d="M172,1.2h4.2v19.4H172V1.2z"/>
	<path fill="#F5F5F5" d="M185.4,11.1c-0.2-0.4-0.4-0.8-0.8-1.2c-0.3-0.3-0.8-0.5-1.3-0.5c-0.9,0-1.4,0.3-1.4,0.9
		c0,0.3,0.1,0.5,0.3,0.7c0.2,0.2,0.4,0.3,0.8,0.5c0.3,0.2,0.7,0.3,1.1,0.4c0.4,0.2,0.8,0.3,1.2,0.5c0.9,0.3,1.7,0.7,2.3,1.3
		c0.3,0.3,0.6,0.6,0.8,1.1c0.2,0.4,0.2,0.9,0.2,1.5c0,1.5-0.5,2.6-1.5,3.4c-1,0.8-2.3,1.2-3.9,1.3c-1.5,0-2.7-0.4-3.7-1.1
		c-0.5-0.4-0.9-0.8-1.2-1.2c-0.3-0.5-0.6-1-0.8-1.5l3.4-1.1c0.3,0.5,0.6,1,0.9,1.4c0.3,0.4,0.8,0.6,1.4,0.6c0.9,0,1.4-0.4,1.4-1
		c0-0.3-0.1-0.6-0.3-0.8c-0.2-0.2-0.4-0.3-0.8-0.5c-0.3-0.2-0.7-0.3-1-0.4c-0.4-0.1-0.8-0.3-1.3-0.4c-0.4-0.2-0.8-0.4-1.2-0.6
		c-0.4-0.2-0.8-0.5-1.1-0.8c-0.3-0.3-0.6-0.7-0.8-1.1c-0.2-0.4-0.3-0.9-0.3-1.5c0-0.4,0.1-0.8,0.3-1.3c0.2-0.5,0.5-0.9,0.9-1.4
		c0.4-0.5,1-0.8,1.6-1.1c0.7-0.3,1.5-0.4,2.4-0.4c1.1,0,2.2,0.3,3.1,0.9c1,0.6,1.6,1.5,2.1,2.9L185.4,11.1z"/>
	<path fill="#F5F5F5" d="M189.8,1.2h4.2v3.9h-4.2V1.2z M189.8,6.9h4.2v13.7h-4.2V6.9z"/>
	<path fill="#F5F5F5" d="M194.7,6.9h4.6l1.5,7.4h0.1l1.9-7.4h3.4l-4.2,13.7h-3.3L194.7,6.9z"/>
	<path fill="#F5F5F5" d="M210.7,14.7c0,0.7,0.1,1.3,0.4,2.1c0.3,0.8,0.8,1.2,1.6,1.2c0.5,0,1-0.2,1.4-0.6c0.4-0.3,0.7-0.8,0.8-1.3
		l3,1.1c0,0.1-0.1,0.4-0.4,0.8c-0.2,0.4-0.5,0.8-0.9,1.3c-0.4,0.5-1,0.8-1.6,1.1c-0.7,0.3-1.5,0.5-2.5,0.5c-2.1,0-3.6-0.8-4.6-2.2
		c-1-1.4-1.5-3-1.5-5c0-2,0.5-3.7,1.5-5c1-1.4,2.5-2.1,4.5-2.1c2.1,0,3.6,0.8,4.4,2.3c0.8,1.4,1.3,3.1,1.2,4.9v0.9H210.7z
		 M214.2,12.1c0-0.7,0-1.3-0.2-1.9c-0.2-0.6-0.7-0.9-1.5-0.9c-0.6,0-1.1,0.3-1.3,0.9c-0.3,0.6-0.4,1.2-0.4,1.9H214.2z"/>
	<path fill="#F5F5F5" d="M226.6,6.9h4.3v1.8h0.1c1-1.4,2.3-2.1,4-2.2c1.8,0.1,2.8,1.1,2.8,3.1v10.9h-4.2v-9.7c0-0.8-0.4-1.2-1.1-1.2
		c-0.5,0-0.9,0.2-1.2,0.6l-0.3,0.3v10h-4.3V6.9z"/>
	<path fill="#F5F5F5" d="M239.5,13.7c0-2.1,0.5-3.8,1.5-5.1c1-1.3,2.5-2,4.6-2c2,0,3.6,0.7,4.6,2c1,1.3,1.5,3,1.5,5.1
		c0,2.2-0.5,3.9-1.5,5.2c-1,1.3-2.5,2-4.6,2c-2.1,0-3.6-0.7-4.6-2C240,17.6,239.5,15.9,239.5,13.7z M243.9,13.7
		c0,1.7,0.1,2.9,0.4,3.5c0.2,0.6,0.7,1,1.2,0.9c0.3,0,0.5-0.1,0.8-0.3c0.2-0.1,0.4-0.4,0.5-0.7c0.2-0.7,0.4-1.8,0.4-3.5
		c0-1.6-0.1-2.7-0.3-3.4c-0.3-0.6-0.7-1-1.3-1c-0.6,0-1.1,0.3-1.3,1C244,11,243.9,12.2,243.9,13.7z"/>
	<path fill="#F5F5F5" d="M253.1,1.2h4.2v3.9h-4.2V1.2z M253.1,6.9h4.2v13.7h-4.2V6.9z"/>
	<path fill="#F5F5F5" d="M266.5,11.1c-0.2-0.4-0.4-0.8-0.8-1.2c-0.3-0.3-0.8-0.5-1.3-0.5c-0.9,0-1.4,0.3-1.4,0.9
		c0,0.3,0.1,0.5,0.3,0.7c0.2,0.2,0.4,0.3,0.8,0.5c0.3,0.2,0.7,0.3,1.1,0.4c0.4,0.2,0.8,0.3,1.2,0.5c0.9,0.3,1.7,0.7,2.3,1.3
		c0.3,0.3,0.6,0.6,0.8,1.1c0.2,0.4,0.2,0.9,0.2,1.5c0,1.5-0.5,2.6-1.5,3.4c-1,0.8-2.3,1.2-3.9,1.3c-1.5,0-2.7-0.4-3.7-1.1
		c-0.5-0.4-0.9-0.8-1.2-1.2c-0.3-0.5-0.6-1-0.8-1.5L262,16c0.3,0.5,0.6,1,0.9,1.4c0.3,0.4,0.8,0.6,1.4,0.6c0.9,0,1.4-0.4,1.4-1
		c0-0.3-0.1-0.6-0.3-0.8c-0.2-0.2-0.4-0.3-0.8-0.5c-0.3-0.2-0.7-0.3-1-0.4c-0.4-0.1-0.8-0.3-1.3-0.4c-0.4-0.2-0.8-0.4-1.2-0.6
		c-0.4-0.2-0.8-0.5-1.1-0.8c-0.3-0.3-0.6-0.7-0.8-1.1c-0.2-0.4-0.3-0.9-0.3-1.5c0-0.4,0.1-0.8,0.3-1.3c0.2-0.5,0.5-0.9,0.9-1.4
		c0.4-0.5,1-0.8,1.6-1.1c0.7-0.3,1.5-0.4,2.4-0.4c1.1,0,2.2,0.3,3.1,0.9c1,0.6,1.6,1.5,2.1,2.9L266.5,11.1z"/>
	<path fill="#F5F5F5" d="M274.5,14.7c0,0.7,0.1,1.3,0.4,2.1c0.3,0.8,0.8,1.2,1.6,1.2c0.5,0,1-0.2,1.4-0.6c0.4-0.3,0.7-0.8,0.8-1.3
		l3,1.1c0,0.1-0.1,0.4-0.4,0.8c-0.2,0.4-0.5,0.8-0.9,1.3c-0.4,0.5-1,0.8-1.6,1.1c-0.7,0.3-1.5,0.5-2.5,0.5c-2.1,0-3.6-0.8-4.6-2.2
		c-1-1.4-1.5-3-1.5-5c0-2,0.5-3.7,1.5-5c1-1.4,2.5-2.1,4.5-2.1c2.1,0,3.6,0.8,4.4,2.3c0.8,1.4,1.3,3.1,1.2,4.9v0.9H274.5z M278,12.1
		c0-0.7,0-1.3-0.3-1.9c-0.2-0.6-0.7-0.9-1.5-0.9c-0.6,0-1.1,0.3-1.3,0.9c-0.2,0.6-0.4,1.2-0.4,1.9H278z"/>
	<path fill="#F5F5F5" d="M117.7,32.6h4.3v2.1h0.1c0.3-0.9,0.8-1.5,1.6-1.9c0.8-0.4,1.6-0.5,2.5-0.5v4.4c-0.6-0.2-1.2-0.3-1.8-0.4
		c-0.7,0-1.2,0.1-1.6,0.2c-0.4,0.2-0.7,0.4-0.9,0.8v8.9h-4.3V32.6z"/>
	<path fill="#F5F5F5" d="M130.8,40.4c0,0.7,0.1,1.3,0.4,2.1c0.3,0.8,0.8,1.2,1.6,1.2c0.5,0,1-0.2,1.4-0.5c0.4-0.3,0.7-0.8,0.8-1.3
		l3,1.1c0,0.1-0.1,0.4-0.4,0.8c-0.2,0.4-0.5,0.8-0.9,1.3c-0.4,0.5-1,0.8-1.6,1.1c-0.7,0.3-1.5,0.5-2.5,0.5c-2.1,0-3.6-0.8-4.6-2.2
		c-1-1.4-1.5-3.1-1.5-5c0-2,0.5-3.7,1.5-5c1-1.4,2.5-2.1,4.5-2.1c2.1,0,3.6,0.8,4.4,2.3c0.8,1.4,1.3,3.1,1.2,4.9v0.9H130.8z
		 M134.2,37.8c0-0.7,0-1.3-0.3-1.9c-0.2-0.6-0.7-0.9-1.5-0.9c-0.6,0-1.1,0.3-1.3,0.9c-0.3,0.6-0.4,1.2-0.4,1.9H134.2z"/>
	<path fill="#F5F5F5" d="M151.6,34.9c-0.4-0.5-0.9-0.7-1.5-0.7c-0.3,0-0.6,0.1-0.7,0.3c0.4,0.7,0.6,1.4,0.6,2.2
		c0,0.7-0.2,1.2-0.5,1.7c-0.3,0.5-0.8,1-1.3,1.3c-1.1,0.7-2.2,1-3.5,1c-0.8,0-1.4-0.1-1.8-0.2c-0.1,0.1-0.1,0.2-0.2,0.3
		c-0.1,0.2-0.2,0.3-0.2,0.5c0,0.5,0.3,0.8,0.8,0.9c0.5,0.1,1.1,0.2,1.9,0.1c0.7,0,1.3,0,2,0.1c0.7,0.1,1.3,0.2,1.9,0.5
		c0.6,0.2,1.1,0.6,1.5,1.1c0.4,0.5,0.5,1.2,0.5,2.1c0,1.4-0.6,2.4-1.8,3.2c-1.2,0.7-2.8,1.1-4.8,1.1c-0.4,0-0.9,0-1.6-0.1
		c-0.7-0.1-1.4-0.2-2.1-0.4c-0.7-0.2-1.3-0.5-1.8-0.9c-0.5-0.4-0.7-0.9-0.8-1.5c0-0.7,0.3-1.3,0.8-1.7c0.5-0.4,1.1-0.6,1.7-0.7v-0.1
		c-0.5-0.2-1-0.4-1.4-0.8c-0.4-0.3-0.6-0.8-0.6-1.4c0-0.4,0.1-0.7,0.3-1c0.2-0.3,0.4-0.5,0.7-0.8c0.6-0.4,1.1-0.7,1.7-0.9v-0.1
		c-1.7-0.8-2.5-2-2.5-3.6c0-0.8,0.2-1.5,0.6-2c0.4-0.5,0.8-1,1.4-1.3c1.2-0.7,2.3-1,3.5-1c1.4,0,2.6,0.3,3.7,1
		c0.2-0.4,0.6-0.8,1.3-1.2c0.7-0.4,1.4-0.6,2-0.6V34.9z M144.6,45.6c-0.4,0-0.9,0-1.6,0.1c-0.3,0.1-0.6,0.2-0.8,0.4
		c-0.2,0.2-0.4,0.4-0.4,0.8c0,0.3,0.1,0.5,0.3,0.6c0.2,0.2,0.5,0.3,0.8,0.4c0.7,0.1,1.2,0.2,1.7,0.2c0.6,0,1.2-0.1,1.8-0.2
		c0.7-0.1,1.1-0.5,1.1-1c0-0.3-0.1-0.6-0.3-0.8c-0.2-0.2-0.5-0.3-0.8-0.4C145.6,45.7,145,45.6,144.6,45.6L144.6,45.6z M144.7,34.2
		c-0.6,0-1,0.3-1.2,0.8c-0.2,0.5-0.3,1.1-0.3,1.7c0,0.5,0.1,1,0.4,1.5c0.2,0.5,0.6,0.7,1.2,0.7c0.6,0,1.1-0.3,1.3-0.8
		c0.2-0.5,0.3-1,0.3-1.6c0-0.6-0.1-1.1-0.3-1.6C145.7,34.5,145.3,34.2,144.7,34.2z"/>
	<path fill="#F5F5F5" d="M152.5,26.9h4.3v3.9h-4.3V26.9z M152.5,32.6h4.3v13.7h-4.3V32.6z"/>
	<path fill="#F5F5F5" d="M165.9,36.8c-0.2-0.4-0.4-0.8-0.8-1.2c-0.3-0.3-0.8-0.5-1.3-0.5c-0.9,0-1.4,0.3-1.4,0.9
		c0,0.3,0.1,0.5,0.3,0.7c0.2,0.2,0.5,0.3,0.8,0.5c0.3,0.2,0.7,0.3,1.1,0.4c0.4,0.2,0.8,0.3,1.2,0.5c0.9,0.3,1.7,0.7,2.3,1.3
		c0.3,0.3,0.6,0.6,0.8,1.1c0.2,0.4,0.2,0.9,0.2,1.5c0,1.5-0.5,2.6-1.5,3.4c-1,0.8-2.3,1.2-3.9,1.3c-1.5,0-2.7-0.4-3.7-1.1
		c-0.5-0.4-0.9-0.8-1.2-1.2c-0.3-0.5-0.6-1-0.8-1.5l3.4-1.1c0.3,0.5,0.6,1,0.9,1.4c0.3,0.4,0.8,0.6,1.4,0.6c0.9,0,1.4-0.3,1.4-1
		c0-0.3-0.1-0.6-0.3-0.8c-0.2-0.2-0.4-0.4-0.8-0.5c-0.3-0.2-0.7-0.3-1-0.4c-0.4-0.1-0.8-0.3-1.3-0.4c-0.4-0.2-0.8-0.4-1.2-0.6
		c-0.4-0.2-0.8-0.5-1.1-0.8c-0.3-0.3-0.6-0.7-0.8-1.1c-0.2-0.4-0.3-0.9-0.3-1.5c0-0.4,0.1-0.8,0.3-1.3c0.2-0.5,0.5-0.9,0.9-1.4
		c0.4-0.5,1-0.8,1.6-1.1c0.7-0.3,1.5-0.4,2.4-0.4c1.1,0,2.2,0.3,3.1,0.9c1,0.6,1.6,1.5,2,2.9L165.9,36.8z"/>
	<path fill="#F5F5F5" d="M170.8,35.7H169v-3.1h1.7v-4.9h4.3v4.9h2.3v3.1H175v5.8c0,0.5,0,0.9,0.2,1.2c0.1,0.3,0.5,0.5,1.2,0.5
		c0.3,0,0.7,0,1-0.1v3.2c-1,0.2-2,0.4-3,0.4c-2.4,0-3.6-1.1-3.6-3.5V35.7z"/>
	<path fill="#F5F5F5" d="M182.3,40.4c0,0.7,0.1,1.3,0.4,2.1c0.3,0.8,0.8,1.2,1.6,1.2c0.5,0,1-0.2,1.4-0.5c0.4-0.3,0.7-0.8,0.8-1.3
		l3,1.1c0,0.1-0.1,0.4-0.4,0.8c-0.2,0.4-0.5,0.8-0.9,1.3c-0.4,0.5-1,0.8-1.6,1.1c-0.7,0.3-1.5,0.5-2.5,0.5c-2.1,0-3.6-0.8-4.6-2.2
		c-1-1.4-1.5-3.1-1.5-5c0-2,0.5-3.7,1.5-5c1-1.4,2.5-2.1,4.5-2.1c2.1,0,3.6,0.8,4.4,2.3c0.8,1.4,1.3,3.1,1.2,4.9v0.9H182.3z
		 M185.8,37.8c0-0.7,0-1.3-0.2-1.9c-0.2-0.6-0.7-0.9-1.5-0.9c-0.6,0-1.1,0.3-1.3,0.9c-0.3,0.6-0.4,1.2-0.4,1.9H185.8z"/>
	<path fill="#F5F5F5" d="M191.2,32.6h4.3v2.1h0c0.3-0.9,0.8-1.5,1.6-1.9c0.8-0.4,1.6-0.5,2.5-0.5v4.4c-0.6-0.2-1.2-0.3-1.8-0.4
		c-0.7,0-1.2,0.1-1.6,0.2c-0.4,0.2-0.7,0.4-0.9,0.8v8.9h-4.3V32.6z"/>
	<path fill="#F5F5F5" d="M207.7,26.9h4.3v3.9h-4.3V26.9z M207.7,32.6h4.3v13.7h-4.3V32.6z"/>
	<path fill="#F5F5F5" d="M214,32.6h4.3v1.8h0.1c1-1.4,2.3-2.1,4-2.2c1.8,0.1,2.8,1.1,2.8,3.1v10.9h-4.2v-9.7c0-0.8-0.4-1.2-1.1-1.2
		c-0.5,0-0.9,0.2-1.2,0.6l-0.3,0.3v10H214V32.6z"/>
	<path fill="#F5F5F5" d="M235.1,35.7h-1.7v-3.1h1.7v-4.9h4.3v4.9h2.3v3.1h-2.3v5.8c0,0.5,0,0.9,0.2,1.2c0.1,0.3,0.5,0.5,1.2,0.5
		c0.3,0,0.7,0,1-0.1v3.2c-1,0.2-2,0.4-3,0.4c-2.4,0-3.6-1.1-3.6-3.5V35.7z"/>
	<path fill="#F5F5F5" d="M243.2,26.9h4.3v7.5h0.1c1-1.4,2.3-2.1,4-2.2c1.8,0.1,2.8,1.1,2.8,3.1v10.9h-4.3v-9.7
		c0-0.8-0.4-1.2-1.1-1.2c-0.5,0-0.9,0.2-1.2,0.6l-0.3,0.3v10h-4.2V26.9z"/>
	<path fill="#F5F5F5" d="M260.2,40.4c0,0.7,0.1,1.3,0.4,2.1c0.3,0.8,0.8,1.2,1.6,1.2c0.5,0,1-0.2,1.4-0.5c0.4-0.3,0.7-0.8,0.8-1.3
		l3,1.1c0,0.1-0.1,0.4-0.4,0.8c-0.2,0.4-0.5,0.8-0.9,1.3c-0.4,0.5-1,0.8-1.6,1.1c-0.7,0.3-1.5,0.5-2.5,0.5c-2.1,0-3.6-0.8-4.6-2.2
		c-1-1.4-1.5-3.1-1.5-5c0-2,0.5-3.7,1.5-5c1-1.4,2.5-2.1,4.5-2.1c2.1,0,3.6,0.8,4.4,2.3c0.8,1.4,1.3,3.1,1.2,4.9v0.9H260.2z
		 M263.6,37.8c0-0.7,0-1.3-0.2-1.9c-0.2-0.6-0.7-0.9-1.5-0.9c-0.6,0-1.1,0.3-1.3,0.9c-0.2,0.6-0.4,1.2-0.4,1.9H263.6z"/>
	<path fill="#F5F5F5" d="M117.9,52.6h6.6l2,10.9h0.1l2.4-10.9h6.5v19.4h-4.7V57.6h-0.1l-3.2,14.3h-2.9l-3-14.8h-0.1v14.8h-3.6V52.6z
		"/>
	<path fill="#F5F5F5" d="M141.8,66.1c0,0.7,0.1,1.3,0.4,2.1c0.3,0.8,0.8,1.2,1.6,1.2c0.5,0,1-0.2,1.4-0.5c0.4-0.3,0.7-0.8,0.8-1.3
		l3,1.1c0,0.1-0.1,0.4-0.4,0.8c-0.2,0.4-0.5,0.8-0.9,1.3c-0.4,0.5-1,0.8-1.6,1.1c-0.7,0.3-1.5,0.5-2.5,0.5c-2.1,0-3.6-0.8-4.6-2.2
		c-1-1.4-1.5-3.1-1.5-5c0-2,0.5-3.7,1.5-5c1-1.4,2.5-2.1,4.5-2.1c2.1,0,3.6,0.8,4.4,2.3c0.8,1.4,1.3,3.1,1.2,4.9v0.9H141.8z
		 M145.3,63.5c0-0.7,0-1.3-0.3-1.9c-0.2-0.6-0.7-0.9-1.5-0.9c-0.6,0-1.1,0.3-1.3,0.9c-0.2,0.6-0.4,1.2-0.4,1.9H145.3z"/>
	<path fill="#F5F5F5" d="M161.7,71.9h-4.1v-1.3h-0.1c-0.6,0.6-1.2,1-1.6,1.2c-0.5,0.2-1,0.3-1.7,0.3c-1.4,0-2.5-0.7-3.1-2
		c-0.7-1.2-1.1-2.8-1.1-4.5c0-2,0.3-3.8,0.9-5.2c0.7-1.4,1.8-2.1,3.4-2.2c0.7,0,1.2,0.1,1.7,0.3c0.5,0.2,0.9,0.5,1.3,0.9v-6.9h4.3
		V71.9z M157.4,61.3c-0.3-0.4-0.8-0.6-1.5-0.6c-0.4,0-0.7,0.1-0.9,0.4c-0.2,0.3-0.4,0.6-0.5,1.1c-0.2,0.9-0.2,1.8-0.2,2.7
		c0,1.4,0,2.5,0.2,3.3c0.1,0.8,0.5,1.3,1.1,1.3c0.3,0,0.7-0.1,1-0.3c0.3-0.2,0.5-0.4,0.7-0.7V61.3z"/>
	<path fill="#F5F5F5" d="M164.1,52.6h4.3v3.9h-4.3V52.6z M164.1,58.3h4.3v13.7h-4.3V58.3z"/>
	<path fill="#F5F5F5" d="M170.9,61.4h-1.7v-3.1h1.7v-4.9h4.3v4.9h2.3v3.1h-2.3v5.8c0,0.5,0,0.9,0.2,1.2c0.1,0.3,0.5,0.5,1.2,0.5
		c0.4,0,0.7,0,1-0.1v3.2c-1,0.2-2,0.4-3,0.4c-2.4,0-3.6-1.1-3.6-3.5V61.4z"/>
	<path fill="#F5F5F5" d="M182.5,66.1c0,0.7,0.1,1.3,0.4,2.1c0.3,0.8,0.8,1.2,1.6,1.2c0.5,0,1-0.2,1.4-0.5c0.4-0.3,0.7-0.8,0.8-1.3
		l3,1.1c0,0.1-0.1,0.4-0.4,0.8c-0.2,0.4-0.5,0.8-0.9,1.3c-0.4,0.5-1,0.8-1.6,1.1c-0.7,0.3-1.5,0.5-2.5,0.5c-2.1,0-3.6-0.8-4.6-2.2
		c-1-1.4-1.5-3.1-1.5-5c0-2,0.5-3.7,1.5-5c1-1.4,2.5-2.1,4.5-2.1c2.1,0,3.6,0.8,4.4,2.3c0.8,1.4,1.3,3.1,1.2,4.9v0.9H182.5z
		 M186,63.5c0-0.7,0-1.3-0.3-1.9c-0.2-0.6-0.7-0.9-1.5-0.9c-0.6,0-1.1,0.3-1.3,0.9c-0.2,0.6-0.4,1.2-0.4,1.9H186z"/>
	<path fill="#F5F5F5" d="M191.3,58.3h4.3v2.1h0.1c0.3-0.9,0.8-1.5,1.6-1.9c0.8-0.4,1.6-0.5,2.5-0.5v4.4c-0.6-0.2-1.2-0.3-1.8-0.4
		c-0.7,0-1.2,0.1-1.6,0.2c-0.4,0.2-0.7,0.4-0.9,0.8v8.9h-4.3V58.3z"/>
	<path fill="#F5F5F5" d="M200.7,58.3h4.3v2.1h0.1c0.3-0.9,0.8-1.5,1.6-1.9c0.8-0.4,1.6-0.5,2.5-0.5v4.4c-0.6-0.2-1.2-0.3-1.8-0.4
		c-0.7,0-1.2,0.1-1.6,0.2c-0.4,0.2-0.7,0.4-0.9,0.8v8.9h-4.3V58.3z"/>
	<path fill="#F5F5F5" d="M216.6,62.3c0-0.4-0.1-0.8-0.2-1.1c-0.2-0.3-0.5-0.5-0.9-0.5c-0.5,0-0.8,0.2-1,0.6
		c-0.2,0.4-0.4,0.8-0.4,1.2l-3.9-0.8c0.3-1.4,0.9-2.3,2-2.9c1-0.6,2.1-0.9,3.4-0.9c1.4,0,2.6,0.3,3.7,0.9c1.1,0.7,1.6,1.7,1.7,3.2
		v7.6c0,0.7,0,1.3,0.2,1.6c0.1,0.3,0.2,0.5,0.2,0.6h-4.5c-0.1-0.4-0.1-0.8-0.1-1.2c-0.4,0.5-0.8,0.8-1.4,1.1
		c-0.6,0.3-1.2,0.5-1.9,0.5c-2.5,0-3.7-1.4-3.8-4.2c0-0.9,0.2-1.7,0.7-2.3c0.5-0.6,1-1.1,1.7-1.5c1.5-0.7,3.1-1.1,4.7-1V62.3z
		 M216.6,65.4c-0.9,0.1-1.6,0.2-2.1,0.5c-0.5,0.3-0.8,1-0.8,2c0,1,0.5,1.5,1.4,1.5c0.4,0,0.9-0.3,1.5-0.9V65.4z"/>
	<path fill="#F5F5F5" d="M223,58.3h4.3v1.8h0.1c1-1.4,2.3-2.1,4-2.2c1.8,0.1,2.8,1.1,2.8,3.1v10.9h-4.3v-9.7c0-0.8-0.4-1.2-1.1-1.2
		c-0.5,0-0.9,0.2-1.2,0.6l-0.3,0.3v10H223V58.3z"/>
	<path fill="#F5F5F5" d="M240.2,66.1c0,0.7,0.1,1.3,0.4,2.1c0.3,0.8,0.8,1.2,1.6,1.2c0.5,0,1-0.2,1.4-0.5c0.4-0.3,0.7-0.8,0.8-1.3
		l3,1.1c0,0.1-0.1,0.4-0.4,0.8c-0.2,0.4-0.5,0.8-0.9,1.3c-0.4,0.5-1,0.8-1.6,1.1c-0.7,0.3-1.5,0.5-2.5,0.5c-2.1,0-3.6-0.8-4.6-2.2
		c-1-1.4-1.5-3.1-1.5-5c0-2,0.5-3.7,1.5-5c1-1.4,2.5-2.1,4.5-2.1c2.1,0,3.6,0.8,4.4,2.3c0.8,1.4,1.3,3.1,1.2,4.9v0.9H240.2z
		 M243.6,63.5c0-0.7,0-1.3-0.3-1.9c-0.2-0.6-0.7-0.9-1.5-0.9c-0.6,0-1.1,0.3-1.3,0.9c-0.3,0.6-0.4,1.2-0.4,1.9H243.6z"/>
	<path fill="#F5F5F5" d="M255.5,62.3c0-0.4-0.1-0.8-0.2-1.1c-0.2-0.3-0.5-0.5-0.9-0.5c-0.5,0-0.8,0.2-1,0.6
		c-0.2,0.4-0.4,0.8-0.4,1.2l-3.9-0.8c0.3-1.4,0.9-2.3,2-2.9c1-0.6,2.1-0.9,3.4-0.9c1.4,0,2.6,0.3,3.7,0.9c1.1,0.7,1.6,1.7,1.7,3.2
		v7.6c0,0.7,0.1,1.3,0.2,1.6c0.1,0.3,0.2,0.5,0.2,0.6h-4.5c0-0.4-0.1-0.8-0.1-1.2c-0.4,0.5-0.8,0.8-1.4,1.1
		c-0.6,0.3-1.2,0.5-1.9,0.5c-2.5,0-3.7-1.4-3.8-4.2c0-0.9,0.2-1.7,0.7-2.3c0.5-0.6,1-1.1,1.7-1.5c1.5-0.7,3.1-1.1,4.7-1V62.3z
		 M255.5,65.4c-0.9,0.1-1.6,0.2-2.1,0.5c-0.5,0.3-0.8,1-0.8,2c0,1,0.5,1.5,1.4,1.5c0.4,0,0.9-0.3,1.5-0.9V65.4z"/>
	<path fill="#F5F5F5" d="M261.8,58.3h4.3v1.8h0.1c1-1.4,2.3-2.1,4-2.2c1.8,0.1,2.8,1.1,2.8,3.1v10.9h-4.3v-9.7
		c0-0.8-0.4-1.2-1.1-1.2c-0.5,0-0.9,0.2-1.2,0.6l-0.3,0.3v10h-4.3V58.3z"/>
	<path fill="#F5F5F5" d="M120.4,91.5c0.2,0.4,0.4,0.8,0.6,1.1c0.2,0.3,0.4,0.6,0.7,0.9c0.3,0.2,0.6,0.4,1,0.6
		c0.3,0.1,0.7,0.2,1.2,0.2c0.6,0,1.1-0.2,1.5-0.5c0.4-0.3,0.6-0.7,0.6-1.1c0-0.5-0.1-0.9-0.3-1.2c-0.2-0.3-0.6-0.6-1-0.8
		c-0.4-0.2-0.9-0.5-1.4-0.6c-0.5-0.2-1.1-0.4-1.6-0.6c-1.1-0.4-2.1-1-3-1.9c-0.4-0.5-0.7-1-1-1.7c-0.3-0.7-0.4-1.4-0.4-2.3
		c0-1.5,0.6-2.8,1.9-3.9c1.2-1.1,2.6-1.6,4.3-1.6c1.6,0,3,0.4,4.2,1.2c1.1,0.8,1.9,1.8,2.3,3.1l-3.9,1.6c-0.2-0.6-0.6-1.1-1-1.5
		c-0.4-0.4-1-0.6-1.7-0.6c-0.4,0-0.8,0.1-1.1,0.4c-0.4,0.3-0.5,0.7-0.5,1.2c0,0.3,0.1,0.6,0.4,0.8c0.2,0.3,0.6,0.5,1,0.7
		c0.4,0.2,0.9,0.4,1.4,0.6c0.5,0.2,1,0.4,1.6,0.7c1.1,0.4,2.1,1.1,3,1.9c0.4,0.4,0.8,0.9,1,1.5c0.2,0.6,0.4,1.2,0.4,2
		c0,2-0.7,3.6-2.1,4.8c-1.3,1.2-3,1.8-4.9,1.8c-3.4,0-5.7-1.7-7-4.9L120.4,91.5z"/>
	<path fill="#F5F5F5" d="M135.3,91.7c0,0.7,0.1,1.3,0.4,2.1c0.3,0.8,0.8,1.2,1.6,1.2c0.5,0,1-0.2,1.4-0.6c0.4-0.3,0.7-0.8,0.8-1.3
		l3,1.1c0,0.1-0.1,0.4-0.4,0.8c-0.2,0.4-0.5,0.8-0.9,1.3c-0.4,0.4-1,0.8-1.6,1.1c-0.7,0.3-1.5,0.5-2.5,0.5c-2.1,0-3.6-0.8-4.6-2.2
		c-1-1.4-1.5-3-1.5-5c0-2,0.5-3.7,1.5-5c1-1.4,2.5-2.1,4.5-2.1c2.1,0,3.6,0.8,4.4,2.3c0.8,1.4,1.3,3.1,1.2,4.9v0.9H135.3z
		 M138.8,89.2c0-0.7,0-1.3-0.3-1.9c-0.2-0.6-0.7-0.9-1.5-0.9c-0.6,0-1.1,0.3-1.3,0.9c-0.2,0.6-0.4,1.2-0.4,1.9H138.8z"/>
	<path fill="#F5F5F5" d="M150.6,88c0-0.4-0.1-0.8-0.2-1.1c-0.2-0.3-0.5-0.5-0.9-0.5c-0.5,0-0.8,0.2-1,0.6c-0.2,0.4-0.4,0.8-0.4,1.2
		l-3.9-0.8c0.3-1.4,0.9-2.3,2-2.9c1-0.6,2.1-0.9,3.4-0.9c1.4,0,2.6,0.3,3.7,0.9c1.1,0.7,1.6,1.7,1.7,3.2v7.6c0,0.7,0.1,1.3,0.2,1.6
		c0.1,0.3,0.2,0.5,0.2,0.6h-4.5c-0.1-0.4-0.1-0.8-0.1-1.2c-0.4,0.5-0.8,0.8-1.4,1.1c-0.6,0.3-1.2,0.5-1.9,0.5
		c-2.5,0-3.7-1.4-3.8-4.2c0-0.9,0.2-1.7,0.7-2.3c0.5-0.6,1-1.1,1.7-1.5c1.5-0.7,3.1-1.1,4.7-1V88z M150.6,91.1
		c-0.9,0.1-1.6,0.2-2.1,0.5c-0.5,0.3-0.8,1-0.8,2c0,1,0.5,1.5,1.4,1.5c0.4,0,0.9-0.3,1.5-0.9V91.1z"/>
	<path fill="#F5F5F5" d="M164.3,78.2h7.3c1.9,0,3.4,0.4,4.7,1.3c1.2,0.9,1.8,2.3,1.8,4.2c0,1-0.3,1.9-0.9,2.7
		c-0.6,0.8-1.4,1.4-2.3,1.8l3.2,9.4h-4.8l-2.4-8.4h-1.6v8.4h-4.9V78.2z M169.2,86.1h0.9c1,0,1.7-0.2,2.2-0.5
		c0.5-0.3,0.8-0.9,0.8-1.6c0-1-0.3-1.6-1-1.9c-0.6-0.2-1.4-0.3-2.2-0.3h-0.8V86.1z"/>
	<path fill="#F5F5F5" d="M182.8,91.7c0,0.7,0.1,1.3,0.4,2.1c0.3,0.8,0.8,1.2,1.6,1.2c0.5,0,1-0.2,1.4-0.6c0.4-0.3,0.7-0.8,0.8-1.3
		l3,1.1c0,0.1-0.1,0.4-0.4,0.8c-0.2,0.4-0.5,0.8-0.9,1.3c-0.4,0.4-1,0.8-1.6,1.1c-0.7,0.3-1.5,0.5-2.5,0.5c-2.1,0-3.6-0.8-4.6-2.2
		c-1-1.4-1.5-3-1.5-5c0-2,0.5-3.7,1.5-5c1-1.4,2.5-2.1,4.5-2.1c2.1,0,3.6,0.8,4.4,2.3c0.8,1.4,1.3,3.1,1.2,4.9v0.9H182.8z
		 M186.2,89.2c0-0.7,0-1.3-0.2-1.9c-0.2-0.6-0.7-0.9-1.5-0.9c-0.6,0-1.1,0.3-1.3,0.9c-0.3,0.6-0.4,1.2-0.4,1.9H186.2z"/>
	<path fill="#F5F5F5" d="M203.6,86.3c-0.4-0.5-0.9-0.7-1.5-0.7c-0.3,0-0.6,0.1-0.7,0.3c0.4,0.7,0.6,1.4,0.6,2.2
		c0,0.7-0.2,1.2-0.4,1.7c-0.3,0.5-0.8,1-1.3,1.3c-1.1,0.7-2.2,1-3.5,1c-0.8,0-1.4-0.1-1.8-0.2c-0.1,0.1-0.1,0.2-0.2,0.3
		c-0.1,0.2-0.2,0.3-0.2,0.5c0,0.5,0.3,0.8,0.8,0.8c0.5,0.1,1.1,0.2,1.9,0.1c0.7,0,1.3,0,2,0.1c0.7,0.1,1.3,0.2,1.9,0.5
		c0.6,0.2,1.1,0.6,1.5,1.1c0.4,0.5,0.5,1.2,0.6,2.1c0,1.4-0.6,2.4-1.8,3.2c-1.2,0.7-2.8,1.1-4.8,1.1c-0.4,0-0.9,0-1.6-0.1
		c-0.7-0.1-1.4-0.2-2.1-0.4c-0.7-0.2-1.3-0.5-1.8-0.9c-0.5-0.4-0.7-0.9-0.8-1.5c0-0.7,0.3-1.3,0.8-1.7c0.5-0.4,1.1-0.6,1.7-0.7v-0.1
		c-0.5-0.2-1-0.4-1.4-0.8c-0.4-0.3-0.6-0.8-0.6-1.4c0-0.4,0.1-0.7,0.3-1c0.2-0.3,0.4-0.5,0.7-0.8c0.6-0.4,1.1-0.7,1.7-0.9v-0.1
		c-1.7-0.8-2.5-2-2.5-3.6c0-0.8,0.2-1.5,0.6-2c0.4-0.5,0.8-1,1.4-1.3c1.2-0.7,2.3-1,3.5-1c1.4,0,2.6,0.3,3.7,1
		c0.2-0.4,0.6-0.8,1.3-1.2c0.7-0.4,1.4-0.6,2-0.6V86.3z M196.6,97c-0.4,0-0.9,0-1.6,0.1c-0.3,0.1-0.6,0.2-0.8,0.4
		c-0.2,0.2-0.4,0.4-0.4,0.8c0,0.3,0.1,0.5,0.3,0.6c0.2,0.2,0.5,0.3,0.8,0.4c0.7,0.1,1.2,0.2,1.7,0.2c0.6,0,1.2-0.1,1.8-0.2
		c0.7-0.1,1.1-0.5,1.1-1c0-0.3-0.1-0.6-0.3-0.8c-0.2-0.2-0.5-0.3-0.8-0.4C197.7,97,197.1,97,196.6,97L196.6,97z M196.7,85.6
		c-0.6,0-1,0.3-1.2,0.8c-0.2,0.5-0.3,1.1-0.3,1.7c0,0.5,0.1,1,0.4,1.5c0.2,0.5,0.6,0.7,1.2,0.7c0.6,0,1.1-0.3,1.3-0.8
		c0.2-0.5,0.3-1,0.3-1.6c0-0.6-0.1-1.1-0.3-1.6C197.8,85.8,197.3,85.6,196.7,85.6z"/>
	<path fill="#F5F5F5" d="M204.6,78.2h4.3v3.9h-4.3V78.2z M204.6,83.9h4.3v13.7h-4.3V83.9z"/>
	<path fill="#F5F5F5" d="M210.3,90.7c0-2.1,0.5-3.8,1.5-5.1c1-1.3,2.5-2,4.6-2c2,0,3.6,0.7,4.6,2c1,1.3,1.5,3,1.5,5.1
		c0,2.2-0.5,3.9-1.5,5.2c-1,1.3-2.5,2-4.6,2c-2.1,0-3.6-0.7-4.6-2C210.8,94.6,210.3,92.9,210.3,90.7z M214.7,90.7
		c0,1.7,0.1,2.9,0.4,3.5c0.2,0.6,0.7,1,1.2,0.9c0.3,0,0.5-0.1,0.8-0.3c0.2-0.1,0.4-0.4,0.5-0.7c0.2-0.7,0.4-1.8,0.4-3.5
		c0-1.6-0.1-2.7-0.3-3.4c-0.2-0.6-0.7-1-1.3-1c-0.6,0-1.1,0.3-1.3,1C214.8,88,214.7,89.2,214.7,90.7z"/>
	<path fill="#F5F5F5" d="M223.8,83.9h4.3v1.8h0.1c1-1.4,2.3-2.1,4-2.2c1.8,0.1,2.8,1.1,2.8,3.1v10.9h-4.2v-9.7
		c0-0.8-0.4-1.2-1.1-1.2c-0.5,0-0.9,0.2-1.2,0.6l-0.3,0.3v10h-4.3V83.9z"/>
	<path fill="#F5F5F5" d="M237.5,92.9h4.6v4.7h-4.6V92.9z"/>
	<g>
		<path fill="#F5F5F5" d="M3,10.4C3,6.6,6.7,4,10.5,4H43V0H10.5C4.7,0,0,4.6,0,10.4V56h3V10.4z"/>
		<path fill="#F5F5F5" d="M95,88.1c0,3.7-3.1,6.9-6.8,6.9H42v4h46.2C94,99,98,93.9,98,88.1V55h-3V88.1z"/>
		<path fill="#F5F5F5" d="M10.5,95C6.7,95,3,91.9,3,88.1V55H0v33.1C0,93.9,4.7,99,10.5,99H43v-4H10.5z"/>
		<path fill="#F5F5F5" d="M88.2,4c3.7,0,6.8,2.6,6.8,6.4V57h3V10.4C98,4.6,94,0,88.2,0H43v4H88.2z"/>
	</g>
	<g>
		<path fill="#F5F5F5" d="M12.7,53.7L12.7,53.7c-1.1,0-2-0.9-2-2V47c0-1.1,0.9-2,2-2l0,0c1.1,0,2,0.9,2,2v4.7
			C14.6,52.9,13.8,53.7,12.7,53.7z"/>
		<path fill="#F5F5F5" d="M86.1,53.7L86.1,53.7c-1.1,0-2-0.9-2-2V47c0-1.1,0.9-2,2-2l0,0c1.1,0,2,0.9,2,2v4.7
			C88.1,52.9,87.2,53.7,86.1,53.7z"/>
		<path fill="#F5F5F5" d="M20.1,57.7L20.1,57.7c-1.1,0-2-0.9-2-2V43.1c0-1.1,0.9-2,2-2l0,0c1.1,0,2,0.9,2,2v12.6
			C22,56.8,21.2,57.7,20.1,57.7z"/>
		<path fill="#F5F5F5" d="M27.5,62L27.5,62c-1.1,0-2-0.9-2-2V38.8c0-1.1,0.9-2,2-2l0,0c1.1,0,2,0.9,2,2v21.3
			C29.4,61.1,28.6,62,27.5,62z"/>
		<path fill="#F5F5F5" d="M34.9,55.3L34.9,55.3c-1.1,0-2-0.9-2-2v-7.9c0-1.1,0.9-2,2-2l0,0c1.1,0,2,0.9,2,2v7.9
			C36.8,54.4,36,55.3,34.9,55.3z"/>
		<path fill="#F5F5F5" d="M42.3,52.3L42.3,52.3c-1.1,0-2-0.9-2-2v-1.9c0-1.1,0.9-2,2-2l0,0c1.1,0,2,0.9,2,2v1.9
			C44.3,51.4,43.4,52.3,42.3,52.3z"/>
		<path fill="#F5F5F5" d="M79,52.3L79,52.3c-1.1,0-2-0.9-2-2v-1.9c0-1.1,0.9-2,2-2l0,0c1.1,0,2,0.9,2,2v1.9
			C81,51.4,80.1,52.3,79,52.3z"/>
		<path fill="#F5F5F5" d="M49.7,68.2L49.7,68.2c-1.1,0-2-0.9-2-2V32.6c0-1.1,0.9-2,2-2l0,0c1.1,0,2,0.9,2,2v33.6
			C51.7,67.3,50.8,68.2,49.7,68.2z"/>
		<path fill="#F5F5F5" d="M57.1,57.7L57.1,57.7c-1.1,0-2-0.9-2-2V43.1c0-1.1,0.9-2,2-2l0,0c1.1,0,2,0.9,2,2v12.6
			C59.1,56.8,58.2,57.7,57.1,57.7z"/>
		<path fill="#F5F5F5" d="M64.5,55.3L64.5,55.3c-1.1,0-2-0.9-2-2v-7.9c0-1.1,0.9-2,2-2l0,0c1.1,0,2,0.9,2,2v7.9
			C66.5,54.4,65.6,55.3,64.5,55.3z"/>
		<path fill="#F5F5F5" d="M71.9,60L71.9,60c-1.1,0-2-0.9-2-2V40.8c0-1.1,0.9-2,2-2l0,0c1.1,0,2,0.9,2,2v17.3
			C73.9,59.1,73,60,71.9,60z"/>
	</g>
</g>
<g>
</g>
<g>
</g>
<g>
</g>
<g>
</g>
<g>
</g>
<g>
</g>
</svg>
