<?xml version="1.0" encoding="utf-8"?>
<!-- Generator: Adobe Illustrator 18.0.0, SVG Export Plug-In . SVG Version: 6.00 Build 0)  -->
<!DOCTYPE svg PUBLIC "-//W3C//DTD SVG 1.1//EN" "http://www.w3.org/Graphics/SVG/1.1/DTD/svg11.dtd">
<svg version="1.1" id="Capa_1" xmlns="http://www.w3.org/2000/svg" xmlns:xlink="http://www.w3.org/1999/xlink" x="0px" y="0px"
	 viewBox="0 0 106 106" enable-background="new 0 0 106 106" xml:space="preserve">
<g>
	<g>
		<path fill="#5B9ACB" d="M101,93c0,3.6-3.4,7-7,7H59v6h35c6.5,0,12-6.6,12-13V58h-5V93z"/>
		<path fill="#5B9ACB" d="M94,5c3.6,0,7,2.5,7,6v36h5V11c0-6.5-5.5-11-12-11H59v5H94z"/>
		<path fill="#5B9ACB" d="M5,11c0-3.6,3.5-6,7.1-6H49V0H12.1C5.6,0,0,4.6,0,11v36h5V11z"/>
		<path fill="#5B9ACB" d="M12.1,100C8.5,100,5,96.6,5,93V58H0v35c0,6.5,5.6,13,12.1,13H49v-6H12.1z"/>
	</g>
	<polygon fill="#5B9ACB" points="0,10.7 0,85.7 6.5,99.7 15.4,103.9 35.6,106 69.9,106 95,105 101,99.6 104,92.1 106,77.6 106,40.7 
		103.1,8.1 95.1,2.9 66.7,0 40.9,0 9.2,2.3 	"/>
</g>
<g>
	<path fill="#F5F5F5" d="M13.2,56.3L13.2,56.3c-1.2,0-2.2-1-2.2-2.2v-5.2c0-1.2,1-2.2,2.2-2.2l0,0c1.2,0,2.2,1,2.2,2.2v5.2
		C15.4,55.3,14.4,56.3,13.2,56.3z"/>
	<path fill="#F5F5F5" d="M94.3,56.3L94.3,56.3c-1.2,0-2.2-1-2.2-2.2v-5.2c0-1.2,1-2.2,2.2-2.2l0,0c1.2,0,2.2,1,2.2,2.2v5.2
		C96.5,55.3,95.5,56.3,94.3,56.3z"/>
	<path fill="#F5F5F5" d="M21.4,60.6L21.4,60.6c-1.2,0-2.2-1-2.2-2.2V44.6c0-1.2,1-2.2,2.2-2.2l0,0c1.2,0,2.2,1,2.2,2.2v13.9
		C23.5,59.7,22.6,60.6,21.4,60.6z"/>
	<path fill="#F5F5F5" d="M29.6,65.5L29.6,65.5c-1.2,0-2.2-1-2.2-2.2V39.8c0-1.2,1-2.2,2.2-2.2l0,0c1.2,0,2.2,1,2.2,2.2v23.5
		C31.7,64.5,30.7,65.5,29.6,65.5z"/>
	<path fill="#F5F5F5" d="M37.7,58.1L37.7,58.1c-1.2,0-2.2-1-2.2-2.2v-8.7c0-1.2,1-2.2,2.2-2.2l0,0c1.2,0,2.2,1,2.2,2.2v8.7
		C39.9,57.1,38.9,58.1,37.7,58.1z"/>
	<path fill="#F5F5F5" d="M45.9,54.7L45.9,54.7c-1.2,0-2.2-1-2.2-2.2v-2c0-1.2,1-2.2,2.2-2.2l0,0c1.2,0,2.2,1,2.2,2.2v2
		C48.1,53.7,47.1,54.7,45.9,54.7z"/>
	<path fill="#F5F5F5" d="M86.5,54.7L86.5,54.7c-1.2,0-2.2-1-2.2-2.2v-2c0-1.2,1-2.2,2.2-2.2l0,0c1.2,0,2.2,1,2.2,2.2v2
		C88.7,53.7,87.7,54.7,86.5,54.7z"/>
	<path fill="#F5F5F5" d="M54.1,72.3L54.1,72.3c-1.2,0-2.2-1-2.2-2.2V33c0-1.2,1-2.2,2.2-2.2l0,0c1.2,0,2.2,1,2.2,2.2v37.1
		C56.3,71.3,55.3,72.3,54.1,72.3z"/>
	<path fill="#F5F5F5" d="M62.3,60.6L62.3,60.6c-1.2,0-2.2-1-2.2-2.2V44.6c0-1.2,1-2.2,2.2-2.2l0,0c1.2,0,2.2,1,2.2,2.2v13.9
		C64.4,59.7,63.5,60.6,62.3,60.6z"/>
	<path fill="#F5F5F5" d="M70.5,58.1L70.5,58.1c-1.2,0-2.2-1-2.2-2.2v-8.7c0-1.2,1-2.2,2.2-2.2l0,0c1.2,0,2.2,1,2.2,2.2v8.7
		C72.6,57.1,71.6,58.1,70.5,58.1z"/>
	<path fill="#F5F5F5" d="M78.6,63.2L78.6,63.2c-1.2,0-2.2-1-2.2-2.2V42c0-1.2,1-2.2,2.2-2.2l0,0c1.2,0,2.2,1,2.2,2.2v19.1
		C80.8,62.3,79.8,63.2,78.6,63.2z"/>
</g>
<g>
</g>
<g>
</g>
<g>
</g>
<g>
</g>
<g>
</g>
<g>
</g>
</svg>
